<svg width="35" height="35" viewBox="0 0 35 35" fill="none" xmlns="http://www.w3.org/2000/svg">
<path d="M23.8004 15.0102C25.7283 16.0433 29.4416 15.727 32.2648 12.9033C35.0649 10.1037 36.1236 6.00973 33.4763 3.27492L33.4783 3.27384C33.4658 3.26231 33.4208 3.21733 33.4092 3.20525C33.4092 3.20525 33.4092 3.20634 33.4071 3.20634C30.6741 0.560133 26.5806 1.61825 23.7794 4.41795C20.9562 7.24171 20.64 10.955 21.6725 12.8828C21.4065 14.4614 19.2409 16.1742 17.2984 17.2857C15.8004 16.3616 13.9113 14.7285 13.7128 11.4451C13.8563 10.1335 13.4243 8.77057 12.4206 7.7668C12.3285 7.67469 12.0635 7.45054 12.0635 7.45054L4.74585 1.75129L4.07925 2.41734L12.0196 9.86646L11.1583 10.7277L3.46565 3.03455L2.75931 3.74035L10.4509 11.434L9.7236 12.1612L2.03206 4.46977L1.38853 5.10753L9.03402 12.7536L8.15805 13.6327L0.729326 5.76827L0 6.49976L6.07255 14.1515C6.07255 14.1515 6.21712 14.2997 6.27832 14.3541C7.16212 15.1264 8.27162 15.4908 9.36957 15.46C9.37741 15.46 9.38895 15.4621 9.3931 15.4631C12.2844 15.492 14.0709 17.2497 15.1945 18.766C12.4452 21.5169 3.91278 30.0503 3.91278 30.0503L3.91486 30.0524C3.90647 30.0587 3.89548 30.066 3.8871 30.0744C3.19229 30.7687 3.19229 31.8955 3.8871 32.5919C3.9227 32.6264 4.05672 32.7594 4.09079 32.795C4.7856 33.4904 5.91401 33.4904 6.60774 32.7961C6.61612 32.7877 6.62342 32.7773 6.63027 32.7679L6.63234 32.771C6.63234 32.771 14.5559 24.847 17.5938 21.8102C20.485 24.7003 28.4992 32.7124 28.4992 32.7124L28.5012 32.7103C28.5074 32.7177 28.5106 32.7281 28.5211 32.7386C29.2039 33.4203 30.3181 33.4203 31.0019 32.7366C31.6857 32.0517 31.6877 30.9417 31.0029 30.2557C30.9925 30.2464 30.982 30.2432 30.9737 30.2338L30.9756 30.2318C30.9756 30.2318 22.1239 21.381 19.6682 18.9232C20.7771 17.1156 22.3458 15.2552 23.8004 15.0102ZM22.86 9.72297C22.9019 9.25331 22.9961 8.71298 23.1521 8.1412C23.2349 7.85693 23.3322 7.56419 23.4507 7.26838C23.5815 6.96789 23.7188 6.68822 23.9198 6.39557C24.3041 5.83379 24.7721 5.39702 25.2382 5.03056C25.6989 4.65931 26.1671 4.37081 26.5827 4.15198C26.9953 3.92891 27.365 3.78443 27.6289 3.70169C27.8969 3.61372 28.0529 3.60219 28.0529 3.60219C28.0529 3.60219 27.9241 3.69962 27.7315 3.87969C27.5368 4.06085 27.2592 4.32061 26.9252 4.63155C26.2843 5.25678 25.3712 6.06831 24.724 6.95104C24.568 7.15266 24.4287 7.41863 24.3072 7.66207C24.1753 7.91083 24.0579 8.16788 23.9512 8.42231C23.7292 8.92812 23.5459 9.41815 23.3878 9.84077C23.2339 10.2644 23.1135 10.6225 23.0423 10.877C22.9648 11.132 22.9752 11.2833 22.9878 11.2833C22.9816 11.2928 22.8863 11.1461 22.8581 10.8649C22.8234 10.5869 22.8161 10.1916 22.86 9.72297Z" fill="#1A68B0"/>
</svg>
