<svg width="35" height="35" viewBox="0 0 35 35" fill="none" xmlns="http://www.w3.org/2000/svg">
<path d="M4.58105 12.0847V33.8599C4.58105 34.4908 5.09028 35 5.72112 35H29.2787C29.9095 35 30.4187 34.4908 30.4187 33.8599V12.0847C30.4187 11.6705 30.1945 11.2867 29.8297 11.0852L24.0267 7.88166V6.21716H10.973V7.87786L5.17005 11.0814C4.80527 11.2867 4.58105 11.6667 4.58105 12.0847ZM9.55554 20.5972C9.55554 19.9663 10.0648 19.4571 10.6956 19.4571H14.9252V15.2313C14.9252 14.6004 15.4345 14.0912 16.0653 14.0912H18.9345C19.5654 14.0912 20.0745 14.6004 20.0745 15.2313V19.4609H24.3004C24.9312 19.4609 25.4405 19.9701 25.4405 20.601V23.4701C25.4405 24.101 24.9312 24.6102 24.3004 24.6102H20.0707V28.8855C20.0707 29.5163 19.5615 30.0255 18.9306 30.0255H16.0615C15.4306 30.0255 14.9214 29.5163 14.9214 28.8855V24.6064H10.6956C10.0647 24.6064 9.5555 24.0972 9.5555 23.4663V20.5972H9.55554Z" fill="#1A68B0"/>
<path d="M9.80176 3.74701C9.80176 4.37785 10.311 4.88708 10.9418 4.88708H11.1052H23.8892H24.0526C24.6834 4.88708 25.1927 4.37785 25.1927 3.74701V1.14007C25.1927 0.509229 24.6834 0 24.0526 0H10.9419C10.311 0 9.80179 0.509229 9.80179 1.14007V3.74701H9.80176Z" fill="#1A68B0"/>
</svg>
