<svg width="35" height="35" viewBox="0 0 35 35" fill="none" xmlns="http://www.w3.org/2000/svg">
<path d="M18.6625 30.6052V18.6307C24.2982 17.9853 28.308 13.2665 28.308 7.88368C28.308 5.84882 27.7429 3.31788 26.7636 0.864327C26.5556 0.342523 26.0497 0 25.4882 0H9.50404C8.94217 0 8.4364 0.342523 8.22857 0.864398C7.34439 3.07974 6.65743 5.69109 6.69482 8.10077C6.69482 8.10303 6.69545 8.10529 6.69545 8.10748C6.80428 13.4163 10.781 18.011 16.329 18.6307V30.6052C12.6558 30.9058 9.84013 32.5385 9.84013 33.3593C9.84013 34.2663 13.2675 35 17.4963 35C21.7249 35 25.1527 34.2663 25.1527 33.3593C25.1527 32.5385 22.3361 30.9054 18.6625 30.6052ZM10.1642 2.33349H24.8277C25.5599 4.33019 25.9745 6.32406 25.9745 7.88375C25.9745 8.26245 25.9408 8.63352 25.8925 8.99972C25.1629 8.81789 24.4067 8.79387 23.5955 9.08261C21.4771 9.83684 20.1038 10.3199 17.9486 9.47474C15.8056 8.63374 14.4514 4.81355 11.8817 5.1042C10.8608 5.21911 9.98486 5.55492 9.19416 6.02139C9.37762 4.86387 9.69774 3.60599 10.1642 2.33349Z" fill="#1A68B0"/>
</svg>
