<svg width="35" height="35" viewBox="0 0 35 35" fill="none" xmlns="http://www.w3.org/2000/svg">
<path d="M11.2767 20.4687C12.6634 20.677 14.3561 20.358 16.2051 20.2474C16.5501 20.3255 16.8952 20.3776 17.2533 20.3776C17.6178 20.3776 17.9759 20.3255 18.334 20.2409C23.1452 20.4753 26.8952 21.8359 26.8952 12.0443C26.8952 5.39714 22.5788 0 17.2533 0C11.9277 0 7.61133 5.39714 7.61133 12.0443C7.61133 17.3893 8.63346 19.4661 10.2936 20.1888C10.5996 20.332 10.9316 20.4167 11.2767 20.4687ZM9.74023 8.28776C10.7493 9.6875 13.3665 9.38802 15.6257 7.61719C16.1986 7.16797 16.6999 6.65365 17.1035 6.13281C17.1556 6.13932 17.2077 6.14583 17.2598 6.15885C17.4811 6.19792 17.6829 6.27604 17.9108 6.34766C18.1127 6.44531 18.334 6.52344 18.5293 6.64714C18.7312 6.7513 18.9134 6.89453 19.0957 7.01823C19.2585 7.16146 19.4408 7.29818 19.5775 7.45443C19.7206 7.59766 19.8574 7.75391 19.9615 7.90365C20.0787 8.04688 20.1634 8.19661 20.248 8.32682C20.3326 8.45703 20.4042 8.57422 20.4433 8.67839C20.541 8.88021 20.5995 8.9974 20.5995 8.9974C20.5995 8.9974 20.5799 8.8737 20.541 8.64583C20.5279 8.52865 20.4954 8.39844 20.4563 8.24219C20.4172 8.08594 20.3716 7.90365 20.2936 7.72135C20.2285 7.53255 20.1373 7.33724 20.0331 7.12891C19.9355 6.92057 19.7923 6.71875 19.6555 6.4974C19.4927 6.29557 19.343 6.07422 19.1477 5.87891C18.9654 5.67057 18.744 5.49479 18.5292 5.30599C18.3273 5.16276 18.1126 5.00651 17.8847 4.88281C17.9824 4.68099 18.0604 4.47266 18.1255 4.27734C18.9328 4.64193 19.7597 5.10417 20.4172 5.76172C22.8326 8.17708 21.882 10.9831 23.7441 9.1276C24.037 8.83463 24.2779 8.52865 24.4667 8.22266C24.5318 8.22266 24.5969 8.21615 24.649 8.22917C24.9029 8.29427 25.0657 8.48958 25.1568 8.64583C25.4107 9.06901 25.4694 9.68099 25.3131 10.293C25.0787 11.2044 24.4798 11.7448 23.998 11.8034L23.6074 11.8555L23.5033 12.2396C22.5788 15.5924 20.0853 19.1602 17.2663 19.1602C14.4473 19.1602 11.9603 15.5924 11.0293 12.2396L10.9251 11.8555L10.5345 11.8034C10.0592 11.7383 9.45378 11.1979 9.2194 10.293C9.06315 9.68099 9.12174 9.06901 9.37565 8.64583C9.43424 8.52865 9.56445 8.37891 9.74023 8.28776Z" fill="#1A68B0"/>
<path d="M24.499 21.3477C23.7438 22.6367 22.8649 23.724 21.7061 24.3228C19.3102 25.5468 17.5264 26.5494 17.5264 26.5494L17.5199 26.5429V26.5233L17.5003 26.5363L17.4808 26.5233V26.5429L17.4743 26.5494C17.4743 26.5494 15.6969 25.5598 13.2946 24.3228C12.1357 23.724 11.2633 22.6367 10.5016 21.3477C6.95345 22.7929 4.47949 26.1002 4.47949 28.9973C4.47949 32.0442 4.47949 34.9999 4.47949 34.9999H17.4743H17.5264H30.5212C30.5212 34.9999 30.5212 32.0442 30.5212 28.9973C30.5212 26.1068 28.0407 22.793 24.499 21.3477Z" fill="#1A68B0"/>
</svg>
