<svg width="35" height="35" viewBox="0 0 35 35" fill="none" xmlns="http://www.w3.org/2000/svg">
<path d="M8.27148 4.68262H3.07617C2.5094 4.68262 2.05078 5.14124 2.05078 5.70801C2.05078 6.27478 2.5094 6.7334 3.07617 6.7334H8.27148C8.83825 6.7334 9.29688 6.27478 9.29688 5.70801C9.29688 5.14124 8.83825 4.68262 8.27148 4.68262Z" fill="#1A68B0"/>
<path d="M8.27148 12.8857H3.07617C2.5094 12.8857 2.05078 13.3444 2.05078 13.9111C2.05078 14.4779 2.5094 14.9365 3.07617 14.9365H8.27148C8.83825 14.9365 9.29688 14.4779 9.29688 13.9111C9.29688 13.3444 8.83825 12.8857 8.27148 12.8857Z" fill="#1A68B0"/>
<path d="M6.2207 8.78418H1.02539C0.458623 8.78418 0 9.2428 0 9.80957C0 10.3763 0.458623 10.835 1.02539 10.835H6.2207C6.78747 10.835 7.24609 10.3763 7.24609 9.80957C7.24609 9.2428 6.78747 8.78418 6.2207 8.78418Z" fill="#1A68B0"/>
<path d="M32.9492 13.9111H26.7285V9.80957C26.7285 8.00857 24.5254 7.06029 23.2272 8.36021L15.0247 16.5627C14.2236 17.3638 14.2236 18.6616 15.0247 19.4627L19.727 24.165L13.9993 29.8928C13.1982 30.6939 13.1982 31.9916 13.9993 32.7927C14.8003 33.5938 16.0981 33.5938 16.8992 32.7927L24.0769 25.615C24.878 24.8139 24.878 23.5162 24.0769 22.7151L19.3746 18.0127L22.627 14.7603V15.9619C22.627 17.0944 23.5452 18.0127 24.6777 18.0127H32.9492C34.0817 18.0127 35 17.0944 35 15.9619C35 14.8294 34.0817 13.9111 32.9492 13.9111Z" fill="#1A68B0"/>
<path d="M19.1503 3.48912C18.3352 2.94737 17.2537 3.05456 16.5627 3.74546L10.9231 9.38511C10.122 10.1862 10.122 11.484 10.9231 12.2851C11.7242 13.0862 13.022 13.0861 13.8231 12.285L18.2741 7.83397L19.7735 8.91405L21.7769 6.91071C22.1119 6.57561 22.5072 6.3155 22.9394 6.11241L19.1503 3.48912Z" fill="#1A68B0"/>
<path d="M13.5747 20.9125C13.0551 20.3929 12.7082 19.7534 12.5254 19.0619L1.69458 29.8927C0.893474 30.6938 0.893474 31.9915 1.69458 32.7926C2.49561 33.5937 3.79342 33.5937 4.59452 32.7926L15.0247 22.3625L13.5747 20.9125Z" fill="#1A68B0"/>
<path d="M27.7539 7.75879C29.4528 7.75879 30.8301 6.38154 30.8301 4.68262C30.8301 2.98369 29.4528 1.60645 27.7539 1.60645C26.055 1.60645 24.6777 2.98369 24.6777 4.68262C24.6777 6.38154 26.055 7.75879 27.7539 7.75879Z" fill="#1A68B0"/>
</svg>
