<svg width="35" height="35" viewBox="0 0 35 35" fill="none" xmlns="http://www.w3.org/2000/svg">
<path d="M17.4233 8.22681C22.5455 8.22681 26.6975 12.3784 26.6975 17.4997C26.6975 22.621 22.5459 26.7739 17.4233 26.7739C12.3023 26.7739 8.15039 22.621 8.15039 17.4997C8.15039 12.3784 12.3023 8.22681 17.4233 8.22681Z" fill="#1A68B0"/>
<path d="M5.4184 19.0413C5.47256 19.0009 5.50276 18.9383 5.50276 18.8703V16.1318C5.50276 16.0641 5.47256 16.0015 5.4184 15.9598C5.36457 15.9184 5.29596 15.9049 5.23097 15.9227L0.142532 17.2924C-0.0462085 17.343 -0.0462085 17.6574 0.142532 17.7093L5.23097 19.0787C5.29366 19.0952 5.36457 19.0817 5.4184 19.0413Z" fill="#1A68B0"/>
<path d="M34.8579 17.2922L29.7718 15.9228C29.7055 15.9061 29.6372 15.9195 29.583 15.9599C29.5292 16.0006 29.5 16.0643 29.5 16.1319V18.8704C29.5 18.9381 29.5292 19.0007 29.583 19.0414C29.6372 19.0831 29.7055 19.0953 29.7718 19.0785L34.8579 17.7091C35.0467 17.6572 35.0467 17.3425 34.8579 17.2922Z" fill="#1A68B0"/>
<path d="M18.793 29.1294H16.0545C15.9862 29.1294 15.9219 29.1599 15.8838 29.2138C15.8411 29.2676 15.8276 29.3362 15.8457 29.3999L17.2138 34.4886C17.2654 34.6761 17.5811 34.6761 17.6317 34.4886L19.0008 29.3999C19.0169 29.3362 19.0034 29.2676 18.9627 29.2124C18.9233 29.1599 18.8603 29.1294 18.793 29.1294Z" fill="#1A68B0"/>
<path d="M16.0551 5.8714H18.794C18.8613 5.8714 18.9233 5.8412 18.9637 5.78737C19.0041 5.73321 19.0175 5.66494 19.0018 5.59961L17.6323 0.512161C17.5831 0.32342 17.2663 0.32342 17.2148 0.512161L15.8467 5.59961C15.8286 5.66362 15.8421 5.73321 15.8848 5.78606C15.9215 5.84022 15.9868 5.8714 16.0551 5.8714Z" fill="#1A68B0"/>
<path d="M8.23227 24.7543C8.185 24.7061 8.11771 24.6847 8.0537 24.6936C7.98543 24.7012 7.92799 24.7415 7.89319 24.799L5.26461 29.3662C5.16581 29.5339 5.38803 29.7571 5.56003 29.6606L10.1253 27.0307C10.1837 26.9969 10.2218 26.9388 10.2332 26.8725C10.2401 26.8052 10.2175 26.7399 10.1702 26.6916L8.23227 24.7543Z" fill="#1A68B0"/>
<path d="M26.6132 10.2469C26.6604 10.2951 26.7277 10.3165 26.7953 10.3076C26.8603 10.2987 26.9178 10.2593 26.9545 10.2019L29.5831 5.6357C29.6799 5.46599 29.4574 5.24246 29.2867 5.34028L24.7205 7.96984C24.6644 8.00234 24.624 8.06208 24.6151 8.12937C24.6063 8.19567 24.6296 8.26198 24.6768 8.30924L26.6132 10.2469Z" fill="#1A68B0"/>
<path d="M25.9038 24.7992C25.87 24.7417 25.8119 24.7027 25.7466 24.6938C25.678 24.6849 25.6117 24.7073 25.5644 24.7555L23.6281 26.6921C23.5809 26.7401 23.5572 26.8067 23.5664 26.873C23.5763 26.9393 23.6137 26.9977 23.6731 27.0312L28.238 29.6611C28.4077 29.7576 28.6312 29.5351 28.5344 29.3667L25.9038 24.7992Z" fill="#1A68B0"/>
<path d="M6.86141 10.2187C6.88931 10.2728 6.94446 10.3076 7.00748 10.3132C7.0705 10.3188 7.13549 10.2941 7.18145 10.2469L9.11907 8.30925C9.16634 8.26199 9.19096 8.19798 9.18439 8.13529C9.1821 8.07226 9.14632 8.01745 9.09216 7.98922L4.87094 5.70234C4.71371 5.61798 4.48886 5.84053 4.57454 5.99776L6.86141 10.2187Z" fill="#1A68B0"/>
</svg>
