<svg width="50" height="50" viewBox="0 0 50 50" fill="none" xmlns="http://www.w3.org/2000/svg">
<path d="M33.7734 23.376C33.5493 22.144 33.0658 20.9734 32.3543 19.9428C32.1106 19.5879 32.1542 19.1097 32.4589 18.8054L34.4705 16.793L33.207 15.5304L31.1955 17.5411C30.8912 17.8458 30.4129 17.8894 30.0581 17.6457C29.027 16.9346 27.8564 16.4507 26.624 16.2266C26.2002 16.1486 25.8924 15.7793 25.8929 15.3482V12.5H24.1071V15.3482C24.1076 15.7793 23.7998 16.1486 23.376 16.2266C22.1436 16.4507 20.973 16.9346 19.9419 17.6457C19.5871 17.8894 19.1088 17.8458 18.8045 17.5411L16.793 15.5304L15.5295 16.793L17.5411 18.8054C17.8458 19.1097 17.8894 19.5879 17.6457 19.9428C16.9342 20.9734 16.4507 22.144 16.2266 23.376C16.1486 23.7998 15.7793 24.1076 15.3482 24.1071H12.5V25.8929H15.3482C15.7793 25.8924 16.1486 26.2002 16.2266 26.624C16.4507 27.856 16.9342 29.0266 17.6457 30.0572C17.8894 30.4121 17.8458 30.8903 17.5411 31.1946L15.5295 33.207L16.793 34.4696L18.8045 32.4589C19.1088 32.1542 19.5871 32.1106 19.9419 32.3543C20.973 33.0654 22.1436 33.5493 23.376 33.7734C23.7998 33.8514 24.1076 34.2207 24.1071 34.6518V37.5H25.8929V34.6518C25.8924 34.2207 26.2002 33.8514 26.624 33.7734C27.8564 33.5493 29.027 33.0654 30.0581 32.3543C30.4129 32.1106 30.8912 32.1542 31.1955 32.4589L33.207 34.4696L34.4705 33.207L32.4589 31.1946C32.1542 30.8903 32.1106 30.4121 32.3543 30.0572C33.0658 29.0266 33.5493 27.856 33.7734 26.624C33.8514 26.2002 34.2207 25.8924 34.6518 25.8929H37.5V24.1071H34.6518C34.2207 24.1076 33.8514 23.7998 33.7734 23.376ZM25 32.1429C21.0549 32.1429 17.8571 28.9451 17.8571 25C17.8571 21.0549 21.0549 17.8571 25 17.8571C28.9451 17.8571 32.1429 21.0549 32.1429 25C32.1385 28.9429 28.9429 32.1385 25 32.1429Z" fill="white"/>
<path d="M24.9997 19.6428C22.0413 19.6428 19.6426 22.0415 19.6426 25C19.6426 27.9584 22.0413 30.3571 24.9997 30.3571C27.9582 30.3571 30.3569 27.9584 30.3569 25C30.3538 22.0424 27.9573 19.6459 24.9997 19.6428ZM24.9997 27.6785C23.5205 27.6785 22.3211 26.4792 22.3211 25C22.3211 23.5207 23.5205 22.3214 24.9997 22.3214C26.479 22.3214 27.6783 23.5207 27.6783 25C27.6783 26.4792 26.479 27.6785 24.9997 27.6785Z" fill="white"/>
<path d="M25.8931 25C25.8931 25.4931 25.4934 25.8929 25.0003 25.8929C24.5072 25.8929 24.1074 25.4931 24.1074 25C24.1074 24.507 24.5072 24.1072 25.0003 24.1072C25.4934 24.1072 25.8931 24.507 25.8931 25Z" fill="white"/>
<path d="M42.4873 8.92859L34.8213 1.26257V8.03573C34.8213 8.52881 35.2211 8.92859 35.7141 8.92859H42.4873Z" fill="white"/>
<path d="M43.75 10.7143H35.7143C34.2351 10.7143 33.0357 9.51495 33.0357 8.03571V0H8.92857C7.44934 0 6.25 1.19934 6.25 2.67857V47.3214C6.25 48.8007 7.44934 50 8.92857 50H41.0714C42.5507 50 43.75 48.8007 43.75 47.3214V10.7143ZM16.0714 3.57143H21.4286V5.35714H16.0714V3.57143ZM10.7143 3.57143H14.2857V5.35714H10.7143V3.57143ZM10.7143 7.14286H21.4286V8.92857H10.7143V7.14286ZM39.2857 46.4286H28.5714V44.6429H39.2857V46.4286ZM28.5714 42.8571V41.0714H30.3571V42.8571H28.5714ZM39.2857 42.8571H32.1429V41.0714H39.2857V42.8571ZM39.2857 26.7857C39.2857 27.2788 38.8859 27.6786 38.3929 27.6786H35.3686C35.1209 28.6486 34.7369 29.5785 34.2276 30.44L36.3643 32.5758C36.7126 32.9245 36.7126 33.4896 36.3643 33.8383L33.8392 36.3643C33.4904 36.7126 32.9254 36.7126 32.5766 36.3643L30.4413 34.2285C29.5789 34.7377 28.6486 35.1214 27.6786 35.3686V38.3929C27.6786 38.8859 27.2788 39.2857 26.7857 39.2857H23.2143C22.7212 39.2857 22.3214 38.8859 22.3214 38.3929V35.3686C21.3514 35.1214 20.4215 34.7377 19.56 34.2285L17.4242 36.3643C17.0755 36.7126 16.5104 36.7126 16.1617 36.3643L13.6357 33.8392C13.2874 33.4904 13.2874 32.9254 13.6357 32.5766L15.7724 30.4413C15.2631 29.5789 14.8786 28.649 14.6314 27.6786H11.6071C11.1141 27.6786 10.7143 27.2788 10.7143 26.7857V23.2143C10.7143 22.7212 11.1141 22.3214 11.6071 22.3214H14.6314C14.8791 21.3514 15.2631 20.4215 15.7724 19.56L13.6357 17.4242C13.2874 17.0755 13.2874 16.5104 13.6357 16.1617L16.1608 13.6357C16.5096 13.2874 17.0746 13.2874 17.4234 13.6357L19.5587 15.7715C20.4211 15.2623 21.3514 14.8786 22.3214 14.6314V11.6071C22.3214 11.1141 22.7212 10.7143 23.2143 10.7143H26.7857C27.2788 10.7143 27.6786 11.1141 27.6786 11.6071V14.6314C28.6486 14.8786 29.5785 15.2623 30.44 15.7715L32.5758 13.6357C32.9245 13.2874 33.4896 13.2874 33.8383 13.6357L36.3643 16.1608C36.7126 16.5096 36.7126 17.0746 36.3643 17.4234L34.2276 19.5587C34.7369 20.4211 35.1214 21.351 35.3686 22.3214H38.3929C38.8859 22.3214 39.2857 22.7212 39.2857 23.2143V26.7857Z" fill="white"/>
</svg>
