<svg width="50" height="50" viewBox="0 0 50 50" fill="none" xmlns="http://www.w3.org/2000/svg">
<path d="M6.25 1.5625H0V31.25H6.25V1.5625Z" fill="white"/>
<path d="M50 1.5625H43.75V31.25H50V1.5625Z" fill="white"/>
<path d="M12.5 1.5625H9.375V31.25H12.5V1.5625Z" fill="white"/>
<path d="M39.1016 36.8919C41.0277 34.4852 42.1875 31.4399 42.1875 28.125C42.1875 25.8145 41.617 23.638 40.6252 21.7127V1.5625H37.5002V17.6737C36.5623 16.8316 35.514 16.1148 34.3752 15.5467V1.5625H28.1252V14.0625H28.125C27.0498 14.0625 26.0068 14.1948 25.0002 14.4245V1.5625H15.6252V21.7119C14.6332 23.6374 14.0625 25.8141 14.0625 28.125C14.0625 35.8787 20.3713 42.1875 28.125 42.1875C31.4399 42.1875 34.4853 41.0276 36.8921 39.1014L45.7703 47.9797C46.0755 48.2849 46.4753 48.4375 46.8751 48.4375C47.2749 48.4375 47.6747 48.2849 47.9799 47.9797C48.5902 47.3693 48.5902 46.3806 47.9799 45.7702L39.1016 36.8919ZM28.1251 39.0625C22.094 39.0625 17.1876 34.1561 17.1876 28.125C17.1876 22.0939 22.094 17.1875 28.1251 17.1875C34.1561 17.1875 39.0626 22.0939 39.0626 28.125C39.0626 34.1561 34.1561 39.0625 28.1251 39.0625Z" fill="white"/>
<path d="M20.3125 28.125C20.3125 29.2378 20.5527 30.2918 20.9721 31.25H25V20.972C22.2432 22.1786 20.3125 24.9231 20.3125 28.125Z" fill="white"/>
<path d="M28.125 20.3125V31.25H34.375V23.4804C32.9509 21.5679 30.6927 20.3125 28.125 20.3125Z" fill="white"/>
</svg>
