<svg width="50" height="50" viewBox="0 0 50 50" fill="none" xmlns="http://www.w3.org/2000/svg">
<path d="M13.4313 37.9807C16.3476 37.9807 18.7196 35.6087 18.7196 32.6924V27.4041H8.14258V32.6924C8.14258 35.6087 10.5149 37.9807 13.4313 37.9807Z" fill="white"/>
<path d="M36.5084 37.9807C39.4248 37.9807 41.7967 35.6087 41.7967 32.6924V27.4041H31.2197V32.6924C31.2197 35.6087 33.5921 37.9807 36.5084 37.9807Z" fill="white"/>
<path d="M41.3162 40.8653H26.4122V27.1557C27.6394 26.7204 28.6137 25.7465 29.0489 24.5193H44.2009C44.9974 24.5193 45.6429 23.8735 45.6429 23.077C45.6429 22.2805 44.9974 21.6347 44.2009 21.6347H41.7969V11.0577H42.2775C43.074 11.0577 43.7199 10.4118 43.7199 9.61533C43.7199 8.81882 43.074 8.17299 42.2775 8.17299H30.7392C29.9427 8.17299 29.2969 8.81882 29.2969 9.61533C29.2969 10.4118 29.9427 11.0577 30.7392 11.0577H31.2199V12.5H35.0662C35.8627 12.5 36.5086 13.1458 36.5086 13.9423C36.5086 14.7388 35.8627 15.3847 35.0662 15.3847H31.2199V16.827H35.0662C35.8627 16.827 36.5086 17.4728 36.5086 18.2693C36.5086 19.0659 35.8627 19.7117 35.0662 19.7117H31.2199V21.6347H29.0489C28.6137 20.4075 27.6394 19.4332 26.4122 18.998V7.21169H26.6525C28.6407 7.21169 30.2586 5.59387 30.2586 3.60565C30.2586 1.61743 28.6407 0 26.6525 0H23.2872C21.299 0 19.6815 1.61743 19.6815 3.60565C19.6815 5.59387 21.299 7.21169 23.2872 7.21169H23.5275V18.998C22.3003 19.4332 21.3264 20.4075 20.8912 21.6347H18.7199V11.0577H19.2009C19.9974 11.0577 20.6429 10.4118 20.6429 9.61533C20.6429 8.81882 19.9974 8.17299 19.2009 8.17299H7.6622C6.86569 8.17299 6.21986 8.81882 6.21986 9.61533C6.21986 10.4118 6.86569 11.0577 7.6622 11.0577H8.14285V12.5H11.9892C12.7857 12.5 13.4315 13.1458 13.4315 13.9423C13.4315 14.7388 12.7857 15.3847 11.9892 15.3847H8.14285V16.827H11.9892C12.7857 16.827 13.4315 17.4728 13.4315 18.2693C13.4315 19.0659 12.7857 19.7117 11.9892 19.7117H8.14285V21.6347H5.73921C4.9427 21.6347 4.29688 22.2805 4.29688 23.077C4.29688 23.8735 4.9427 24.5193 5.73921 24.5193H20.8912C21.3264 25.7465 22.3003 26.7204 23.5275 27.1557V40.8653H8.62389C6.23779 40.8653 4.29688 42.8066 4.29688 45.1923V48.5577C4.29688 49.3542 4.9427 50 5.73921 50H44.2009C44.9974 50 45.6429 49.3542 45.6429 48.5577V45.1923C45.6429 42.8066 43.7019 40.8653 41.3162 40.8653Z" fill="white"/>
</svg>
