<svg width="50" height="50" viewBox="0 0 50 50" fill="none" xmlns="http://www.w3.org/2000/svg">
<g clip-path="url(#clip0)">
<path d="M36.6544 11.4356H29.2837C26.7239 11.4356 24.5886 9.31309 24.5886 6.75328V0.0514536C24.5886 0.0385902 24.6529 0 24.6529 0H5.15186H5.139C4.00702 0.0128634 3.09372 0.939027 3.10658 2.07101V40.957C3.10658 40.9699 3.10658 40.9956 3.10658 41.0085C3.13231 42.1147 4.04561 42.9894 5.15186 42.9637H29.9911V38.4358H29.9782C29.1807 38.5001 28.4089 38.1399 27.9458 37.4839C27.4698 36.8279 27.3669 35.9918 27.6757 35.2457L28.4089 33.4191L26.7495 32.3772C26.4408 32.1842 26.1964 31.9398 26.0034 31.6311C25.3217 30.5506 25.6561 29.1227 26.7495 28.441L28.4089 27.399L27.6757 25.5724C27.5342 25.2508 27.4827 24.8907 27.5084 24.5433C27.5985 23.2699 28.7176 22.3051 29.9911 22.3952L31.9463 22.5238L32.4222 20.62C32.4994 20.2727 32.6667 19.9511 32.8982 19.681C33.7214 18.7162 35.175 18.5876 36.1398 19.4109L36.6672 19.8739V11.3841C36.6672 11.3841 36.6672 11.4356 36.6544 11.4356Z" fill="white"/>
<path d="M41.3878 41.8575C41.1562 41.9347 40.9118 41.9733 40.6674 41.9733C40.1272 41.9733 39.5998 41.7803 39.1881 41.433L37.6702 40.1595L36.1652 41.4202C35.5349 41.9347 34.6988 42.1019 33.927 41.8446C33.3353 41.6517 32.8465 41.2272 32.5635 40.6741V50L36.7569 46.0252C37.2586 45.5493 38.0433 45.5493 38.545 46.0252L42.7256 50V40.6869C42.4554 41.2529 41.9795 41.6646 41.3878 41.8575Z" fill="white"/>
<path d="M27.1611 1.35071V6.7662C27.1869 7.9239 28.1259 8.85006 29.2836 8.87579H35.3037L27.1611 1.35071Z" fill="white"/>
<path d="M44.6551 31.8112L46.8934 30.4091L44.6551 29.007C44.1277 28.6725 43.909 28.0165 44.1406 27.4377L45.1439 24.9808L42.5069 25.1608C41.8895 25.1994 41.3235 24.7878 41.1691 24.1832L40.526 21.6234L39.4455 22.5367L38.5064 23.3214C38.0176 23.7201 37.323 23.7201 36.8471 23.3214L34.8275 21.6234L34.1843 24.1832C34.03 24.8007 33.464 25.1994 32.8465 25.1608L30.2095 24.9808L31.2 27.4377C31.4316 28.0165 31.2129 28.6725 30.6855 29.007L28.4473 30.4091L30.6726 31.8241C31.2 32.1457 31.4187 32.8146 31.1872 33.3934L30.1967 35.8375L32.8337 35.6574C33.4511 35.6188 34.0171 36.0304 34.1715 36.635L34.8146 39.1948L36.8342 37.4968C37.3101 37.0981 38.0176 37.0981 38.4936 37.4968L40.5131 39.1948L41.1563 36.6221C41.3106 36.0175 41.8766 35.6059 42.4941 35.6445L45.1311 35.8246L44.1406 33.3805C43.9089 32.8017 44.1276 32.1457 44.6551 31.8112ZM37.6832 35.6831C34.776 35.6831 32.4092 33.3291 32.4092 30.422C32.4092 27.5148 34.7632 25.148 37.6703 25.148C40.5774 25.148 42.9314 27.502 42.9443 30.422C42.9442 33.3291 40.5902 35.6831 37.6832 35.6831Z" fill="white"/>
<path d="M37.6837 27.7206C36.1916 27.7206 34.9824 28.9169 34.9824 30.409C34.9824 31.9012 36.1787 33.1103 37.6709 33.1103C39.163 33.1103 40.3593 31.9012 40.3722 30.4219C40.3721 28.9297 39.1758 27.7206 37.6837 27.7206Z" fill="white"/>
</g>
<defs>
<clipPath id="clip0">
<rect width="50" height="50" fill="white"/>
</clipPath>
</defs>
</svg>
