<svg width="50" height="50" viewBox="0 0 50 50" fill="none" xmlns="http://www.w3.org/2000/svg">
<g clip-path="url(#clip0)">
<path d="M26.1752 32.9712C26.7414 32.9712 27.2047 32.5079 27.2047 31.9416V31.4629C27.2047 30.8966 26.7414 30.4333 26.1752 30.4333H8.9817C8.41545 30.4333 7.95215 30.8966 7.95215 31.4629V31.9416C7.95215 32.5079 8.41545 32.9712 8.9817 32.9712H26.1752Z" fill="white"/>
<path d="M36.9694 11.7471C35.353 10.1308 33.4741 8.86441 31.3738 7.97385L31.3635 7.9687C30.6789 7.68043 29.8862 7.92752 29.4846 8.5504L28.2904 10.4087C27.9918 10.3058 27.6727 10.244 27.3432 10.2183C27.2454 10.2131 27.1424 10.208 27.0395 10.208C26.7616 10.208 26.4887 10.2389 26.2261 10.2955L28.3316 7.01122L28.9853 5.99197C29.4434 5.27643 29.2375 4.31895 28.5168 3.8608L22.8904 0.241944C22.633 0.0772161 22.3447 0 22.0564 0C21.5469 0 21.0475 0.252239 20.754 0.710388L10.9682 15.9683C10.51 16.6838 10.716 17.6413 11.4366 18.0995L12.5022 18.7841L12.0183 19.5408L11.5344 20.2975L11.2307 20.7711C10.7726 21.4866 10.9785 22.4441 11.6992 22.9022L12.6155 23.4891C13.331 23.9472 14.2885 23.7413 14.7466 23.0206L15.0503 22.547L15.5342 21.7903L16.0181 21.0336L17.0682 21.708C17.3256 21.8727 17.6139 21.9499 17.9021 21.9499C18.4117 21.9499 18.9111 21.6977 19.2045 21.2395L23.2198 14.9747C23.3021 15.3454 23.4359 15.6954 23.6213 16.0197C23.7809 16.3028 23.9713 16.5654 24.1927 16.797C24.934 17.5795 25.9892 18.0634 27.1578 18.0273C29.2221 17.9656 30.9002 16.2874 30.9569 14.2232C30.9723 13.7187 30.8899 13.2348 30.7304 12.7869C31.8062 13.3738 32.8049 14.1202 33.6955 15.0108C36.1458 17.4611 37.4946 20.7145 37.4946 24.1789C37.4946 27.6434 36.1458 30.8967 33.6955 33.3471C32.1717 34.8708 30.3392 35.9673 28.3367 36.5798C28.1874 36.6262 28.033 36.6468 27.8786 36.6468H22.8132C21.9587 36.6468 21.2689 35.957 21.2689 35.1024V34.7575H13.8922V36.6467V39.0867V41.7069C14.0517 41.6966 14.2165 41.6914 14.376 41.6914H24.5222H26.3702H35.1883H36.4032H36.5216C38.2821 41.3774 39.6257 39.8383 39.6257 37.9851C39.6257 36.8423 39.1161 35.8179 38.313 35.1281C39.3014 33.8824 40.1199 32.513 40.7427 31.0408C41.659 28.8685 42.1275 26.5623 42.1275 24.1891C42.1275 21.816 41.6642 19.5099 40.7427 17.3375C39.8522 15.2425 38.5858 13.3584 36.9694 11.7471ZM27.0394 15.5307C26.3857 15.5307 25.84 15.088 25.6805 14.4806C25.6495 14.3673 25.6342 14.2438 25.6342 14.1202C25.6342 13.4253 26.1386 12.8488 26.8027 12.7355C26.8799 12.7201 26.9623 12.7149 27.0446 12.7149C27.8219 12.7149 28.45 13.3429 28.45 14.1202C28.45 14.8976 27.8167 15.5307 27.0394 15.5307ZM36.4032 39.1846C36.2385 39.2618 36.0531 39.303 35.8575 39.303C35.3375 39.303 34.8897 39.0044 34.6787 38.5669C34.5912 38.3918 34.5448 38.191 34.5448 37.9851C34.5448 37.2593 35.1316 36.6673 35.8627 36.6673C36.0583 36.6673 36.2436 36.7085 36.4083 36.7857C36.4958 36.8269 36.5834 36.8784 36.6606 36.935C36.9746 37.1769 37.1805 37.5527 37.1805 37.98C37.1753 38.5205 36.8562 38.9787 36.4032 39.1846Z" fill="white"/>
<path d="M13.8917 43.514C10.5251 43.7611 7.87402 46.5717 7.87402 50.0001H34.8585C35.713 50.0001 36.4028 49.3103 36.4028 48.4558V45.9797V43.4985H14.3756C14.2109 43.4985 14.0513 43.5037 13.8917 43.514Z" fill="white"/>
</g>
<defs>
<clipPath id="clip0">
<rect width="50" height="50" fill="white"/>
</clipPath>
</defs>
</svg>
