<svg width="50" height="50" viewBox="0 0 50 50" fill="none" xmlns="http://www.w3.org/2000/svg">
<path d="M46.0877 40.9216L33.4894 21.8976V10.6965H34.4146C35.5023 10.6965 36.3842 9.81457 36.3842 8.72688V1.9696C36.3842 0.881906 35.5023 0 34.4146 0H15.5853C14.4976 0 13.6157 0.881906 13.6157 1.9696V8.72688C13.6157 9.81457 14.4976 10.6965 15.5853 10.6965H16.5105V21.8976L3.91221 40.9216C2.721 42.7204 2.61528 45.0185 3.63616 46.9188C4.65704 48.8193 6.63136 50 8.78878 50H41.211C43.3684 50 45.3429 48.8193 46.3636 46.9189C47.3848 45.0185 47.2791 42.7204 46.0877 40.9216ZM17.5549 3.93919H32.445V6.75729C31.1097 6.75729 19.1764 6.75729 17.5549 6.75729V3.93919ZM29.5502 10.6965V22.4906C29.5502 22.8774 29.6641 23.2556 29.8776 23.5779L31.8806 26.6026H22.8463L13.6218 40.5318C13.0214 41.4384 11.7997 41.6872 10.8923 41.0864C9.98534 40.4857 9.73702 39.2638 10.3375 38.3568L20.1223 23.5778C20.336 23.2554 20.4497 22.8772 20.4497 22.4904V10.6965H29.5502Z" fill="white"/>
</svg>
