<svg width="55" height="55" viewBox="0 0 55 55" fill="none" xmlns="http://www.w3.org/2000/svg">
<path d="M43.7207 32.334C42.8317 32.334 42.1094 33.0563 42.1094 33.9453C42.1094 34.8343 42.8317 35.5566 43.7207 35.5566C44.6097 35.5566 45.332 34.8343 45.332 33.9453C45.332 33.0563 44.6097 32.334 43.7207 32.334Z" fill="#1A68B0"/>
<path d="M53.3887 9.77539H16.247V14.6094C16.247 15.5 15.5263 16.2207 14.6357 16.2207C13.7451 16.2207 13.0244 15.5 13.0244 14.6094V9.77539H1.61133C0.720693 9.77539 0 10.4961 0 11.3867V21.0547C0 21.9453 0.720693 22.666 1.61133 22.666C4.27689 22.666 6.44531 24.8344 6.44531 27.5C6.44531 30.1656 4.27689 32.334 1.61133 32.334C0.720693 32.334 0 33.0547 0 33.9453V43.6133C0 44.5039 0.720693 45.2246 1.61133 45.2246H12.8906V40.3906C12.8906 39.5 13.6113 38.7793 14.502 38.7793C15.3926 38.7793 16.1133 39.5 16.1133 40.3906V45.2246H53.3887C54.2793 45.2246 55 44.5039 55 43.6133V11.3867C55 10.4961 54.2793 9.77539 53.3887 9.77539ZM16.1133 33.9453C16.1133 34.8359 15.3926 35.5566 14.502 35.5566C13.6113 35.5566 12.8906 34.8359 12.8906 33.9453V30.7227C12.8906 29.832 13.6113 29.1113 14.502 29.1113C15.3926 29.1113 16.1133 29.832 16.1133 30.7227V33.9453ZM16.1133 24.2773C16.1133 25.168 15.3926 25.8887 14.502 25.8887C13.6113 25.8887 12.8906 25.168 12.8906 24.2773V21.0547C12.8906 20.1641 13.6113 19.4434 14.502 19.4434C15.3926 19.4434 16.1133 20.1641 16.1133 21.0547V24.2773ZM25.9961 21.0547C25.9961 18.3891 28.1645 16.2207 30.8301 16.2207C33.4956 16.2207 35.6641 18.3891 35.6641 21.0547C35.6641 23.7203 33.4956 25.8887 30.8301 25.8887C28.1645 25.8887 25.9961 23.7203 25.9961 21.0547ZM29.9363 38.5086C29.1952 38.0145 28.9953 37.0153 29.4895 36.2741L42.3801 16.9382C42.8726 16.1971 43.8718 15.9988 44.6146 16.4913C45.3557 16.9854 45.5556 17.9846 45.0614 18.7258L32.1708 38.0617C31.6847 38.7919 30.6892 39.0077 29.9363 38.5086ZM43.7207 38.7793C41.0551 38.7793 38.8867 36.6109 38.8867 33.9453C38.8867 31.2797 41.0551 29.1113 43.7207 29.1113C46.3863 29.1113 48.5547 31.2797 48.5547 33.9453C48.5547 36.6109 46.3863 38.7793 43.7207 38.7793Z" fill="#1A68B0"/>
<path d="M30.8301 19.4434C29.9411 19.4434 29.2188 20.1657 29.2188 21.0547C29.2188 21.9437 29.9411 22.666 30.8301 22.666C31.7191 22.666 32.4414 21.9437 32.4414 21.0547C32.4414 20.1657 31.7191 19.4434 30.8301 19.4434Z" fill="#1A68B0"/>
</svg>
