<svg width="55" height="55" viewBox="0 0 55 55" fill="none" xmlns="http://www.w3.org/2000/svg">
<path d="M3.33008 21.8293V50.1661C3.33008 50.9102 3.51302 51.6068 3.81455 52.237L18.7762 37.2754C13.0427 31.542 9.29092 27.7901 3.33008 21.8293Z" fill="#1A68B0"/>
<path d="M36.2236 37.2754L51.1852 52.237C51.4868 51.6068 51.6697 50.9102 51.6697 50.1661V21.8293C45.9493 27.5498 42.0198 31.4793 36.2236 37.2754Z" fill="#1A68B0"/>
<path d="M27.5 16.3281C26.6125 16.3281 25.8887 17.0504 25.8887 17.9395C25.8887 18.8285 26.6125 19.5508 27.5 19.5508C28.6159 19.5508 28.9118 18.7856 29.0889 17.8285C29.0287 16.9939 28.3482 16.3281 27.5 16.3281Z" fill="#1A68B0"/>
<path d="M33.2788 38.8867H21.7226L6.09375 54.5155C6.72399 54.8171 7.42062 55 8.16474 55H46.8366C47.5807 55 48.2773 54.8171 48.9076 54.5155L33.2788 38.8867Z" fill="#1A68B0"/>
<path d="M4.94141 18.8835L9.77539 23.7175V14.0496L4.94141 18.8835Z" fill="#1A68B0"/>
<path d="M45.2246 14.0496V23.7175L50.0586 18.8835L45.2246 14.0496Z" fill="#1A68B0"/>
<path d="M39.9374 0H14.7604C13.7871 0 12.998 0.789014 12.998 1.76236V26.9402L21.7219 35.6641H33.2781L42.002 26.9402V2.06454C42.002 0.924365 41.0776 0 39.9374 0ZM30.7215 21.5171C29.8645 22.2896 28.7419 22.7734 27.5 22.7734C24.8344 22.7734 22.666 20.605 22.666 17.9395C22.666 15.2739 24.8344 13.1055 27.5 13.1055C30.1656 13.1055 32.334 15.2739 32.334 17.9395C32.334 20.0694 35.5566 20.0694 35.5566 17.9395C35.5566 13.4972 31.9437 9.88281 27.5 9.88281C23.0563 9.88281 19.4434 13.4972 19.4434 17.9395C19.4434 20.6963 20.8344 23.2345 23.1664 24.7294C25.5582 26.2588 28.5196 26.4037 31.2985 25.1275C33.2196 24.235 34.5863 27.1632 32.6455 28.0543C28.952 29.7535 24.8498 29.6333 21.4292 27.4422C18.1688 25.3525 16.2207 21.8009 16.2207 17.9395C16.2207 11.7207 21.2812 6.66016 27.5 6.66016C33.7188 6.66016 38.7793 11.7207 38.7793 17.9395C38.7793 22.0816 33.8542 24.3458 30.7215 21.5171Z" fill="#1A68B0"/>
</svg>
