<svg width="55" height="55" viewBox="0 0 55 55" fill="none" xmlns="http://www.w3.org/2000/svg">
<g clip-path="url(#clip0)">
<path d="M23.9907 23.7346C23.8215 23.1754 23.6535 22.6307 23.5131 21.5267H23.4879C23.3463 22.6307 23.2059 23.1886 23.0547 23.7346L22.4932 26.1249H24.5799L23.9907 23.7346Z" fill="#1A68B0"/>
<path d="M15.8754 24.865C17.0105 24.865 17.7029 24.2902 17.7029 23.3243C17.7029 22.4567 17.1125 21.9384 16.0481 21.9384C15.6138 21.9384 15.1758 21.9804 15.1758 22.0223V24.8098C15.177 24.8518 15.5706 24.865 15.8754 24.865Z" fill="#1A68B0"/>
<path d="M43.64 8.46914H41.8473V7.05802C41.8473 5.44532 41.0793 3.90701 39.7905 2.94346C38.503 1.97752 36.8122 1.66914 35.2631 2.12271L27.9386 4.27059C27.6638 2.66148 26.6438 1.27436 25.1415 0.535204C23.3679 -0.338345 21.2968 -0.130757 19.7345 1.07157C19.7345 1.07157 11.8507 7.08562 9.25644 9.1327C8.29287 9.89106 8.00488 11.007 8.00488 11.8253V51.6438C8.00488 53.4977 9.50843 55 11.3612 55H43.6388C45.4927 55 46.9951 53.4977 46.9951 51.6438V11.8253C46.9963 9.97145 45.4939 8.46914 43.64 8.46914ZM27.3362 8.16916L36.2675 5.55331C36.7378 5.41172 37.2442 5.50772 37.6414 5.8029C38.0338 6.09808 38.2606 6.56605 38.2606 7.05802V8.46914H26.1242L27.3362 8.16916ZM24.9855 20.3317L27.911 29.7115H25.6142L24.8859 27.32H22.1836L21.5104 29.7115H19.2965L22.1824 20.3317H24.9855ZM20.5768 38.8166H34.4183C35.4059 38.8166 36.2051 39.6217 36.2051 40.6081C36.2051 41.5944 35.4059 42.4008 34.4183 42.4008H20.5768C19.5917 42.4008 18.7913 41.5944 18.7913 40.6081C18.7913 39.6217 19.5929 38.8166 20.5768 38.8166ZM31.1352 29.9767C30.0601 29.9767 28.9945 29.6959 28.4605 29.4019L28.8949 27.6368C29.4697 27.9308 30.3529 28.2248 31.2624 28.2248C32.2416 28.2248 32.7624 27.8192 32.7624 27.2013C32.7624 26.6121 32.3124 26.2761 31.1808 25.8705C29.6101 25.3234 28.5889 24.4558 28.5889 23.0831C28.5889 21.4728 29.9353 20.2405 32.1612 20.2405C33.2256 20.2405 34.0103 20.466 34.5707 20.7168L34.0943 22.4387C33.7188 22.2563 33.0456 21.9912 32.1192 21.9912C31.1952 21.9912 30.7465 22.4111 30.7465 22.9007C30.7465 23.5019 31.2768 23.7683 32.496 24.2314C34.1651 24.847 34.9487 25.7157 34.9487 27.0465C34.9475 28.6316 33.7271 29.9767 31.1352 29.9767ZM21.9136 3.90461C22.1932 3.68742 22.528 3.57823 22.8675 3.57823C23.1027 3.57823 23.3415 3.63102 23.5623 3.74022C24.1023 4.0054 24.4371 4.54537 24.4371 5.14774L18.2033 6.75564L21.9136 3.90461ZM12.8779 20.5248C13.9807 20.412 14.5374 20.3281 15.8406 20.3281C17.1582 20.3281 18.1349 20.58 18.7637 21.084C19.3673 21.5604 19.7933 22.3451 19.7933 23.2691C19.7933 24.193 19.4933 24.9766 18.9317 25.5094C18.2057 26.1957 17.145 26.5029 15.8862 26.5029C15.6054 26.5029 15.177 26.4897 15.177 26.4609V29.7103H12.8779V20.5248ZM39.4521 49.8499H15.5466C14.5614 49.8499 13.7611 49.0436 13.7611 48.056C13.7611 47.0709 14.5614 46.2645 15.5466 46.2645H39.4533C40.4397 46.2645 41.2401 47.0709 41.2401 48.056C41.2401 49.0436 40.4397 49.8499 39.4521 49.8499ZM38.3506 29.9767C37.273 29.9767 36.2111 29.6959 35.6759 29.4019L36.1091 27.6368C36.6838 27.9308 37.5646 28.2248 38.4766 28.2248C39.4557 28.2248 39.9741 27.8192 39.9741 27.2013C39.9741 26.6121 39.5265 26.2761 38.3938 25.8705C36.8242 25.3234 35.8031 24.4558 35.8031 23.0831C35.8031 21.4728 37.147 20.2405 39.3753 20.2405C40.4397 20.2405 41.2245 20.466 41.7849 20.7168L41.3073 22.4387C40.9329 22.2563 40.2573 21.9912 39.3345 21.9912C38.4094 21.9912 37.9618 22.4111 37.9618 22.9007C37.9618 23.5019 38.491 23.7683 39.7101 24.2314C41.3793 24.847 42.1592 25.7157 42.1592 27.0465C42.1592 28.6316 40.9437 29.9767 38.3506 29.9767Z" fill="#1A68B0"/>
</g>
<defs>
<clipPath id="clip0">
<rect width="55" height="55" fill="white"/>
</clipPath>
</defs>
</svg>
