<svg width="55" height="55" viewBox="0 0 55 55" fill="none" xmlns="http://www.w3.org/2000/svg">
<g clip-path="url(#clip0)">
<path d="M37.1222 25.2841C36.7809 25.8087 36.5986 26.4279 36.5986 27.0535C36.5986 28.0929 37.1098 29.087 37.9534 29.6937C38.809 30.3088 39.9401 30.4692 40.9332 30.1172C41.8988 29.7749 42.6642 28.9729 42.9597 27.992C43.2634 26.9835 43.0505 25.8638 42.3968 25.0382C41.7488 24.22 40.728 23.757 39.6857 23.8083C38.652 23.8588 37.6862 24.4166 37.1222 25.2841Z" fill="#1A68B0"/>
<path d="M45.9396 38.1922C45.9468 38.3702 45.9349 38.014 45.9396 38.1922V38.1922Z" fill="#1A68B0"/>
<path d="M16.7223 14.2467C17.4944 14.6621 18.3653 14.8793 19.2418 14.8793C21.3246 14.8793 23.2607 13.6213 24.1082 11.7185C24.9667 9.79105 24.5781 7.47523 23.1426 5.93101C21.7083 4.38758 19.4338 3.82991 17.4483 4.54009C15.496 5.23836 14.0947 7.06848 13.9337 9.13579C13.7712 11.2222 14.879 13.2547 16.7223 14.2467Z" fill="#1A68B0"/>
<path d="M25.9116 9.69089C26.9283 10.6083 28.2676 11.1226 29.6368 11.1226C31.7171 11.1226 33.666 9.92189 34.6039 8.06503C35.5548 6.1828 35.3371 3.85777 34.0562 2.18373C32.7798 0.515428 30.6199 -0.302106 28.558 0.103067C26.5343 0.500716 24.856 2.04482 24.2886 4.02723C23.7096 6.05141 24.3493 8.28087 25.9116 9.69089Z" fill="#1A68B0"/>
<path d="M44.028 39.1467C44.0821 39.6516 44.537 40.0348 45.0433 40.0055C45.5433 39.9767 45.9467 39.5515 45.9509 39.051C45.9532 38.7638 45.9493 38.4792 45.9392 38.1922C45.9238 37.5206 45.7879 36.8243 45.5922 36.1829C45.4235 35.6299 45.2064 35.092 44.9305 34.5837C44.2561 33.3416 43.2925 32.2622 42.1353 31.4501C41.8649 31.2605 41.5784 31.0623 41.2689 30.9424C40.3905 30.5123 39.337 30.5072 38.4544 30.9283C38.2177 31.0116 37.9995 31.1513 37.7898 31.2868C37.5288 31.4552 37.2787 31.6402 37.0375 31.8359C36.4765 32.2911 35.9677 32.8131 35.528 33.3863C34.7577 34.39 34.1881 35.5677 33.9304 36.8095C33.7762 37.5537 33.7262 38.2927 33.7319 39.0511C33.7356 39.5588 34.1504 39.9856 34.657 40.0066C35.1575 40.0275 35.6009 39.6444 35.655 39.1468C35.7684 38.077 36.0234 37.024 36.61 36.1065V37.1484L34.4638 45.8169C34.3675 46.1907 34.3042 46.5772 35.0334 46.5772H36.8162L37.1469 53.815C37.1759 54.4075 37.6801 54.8902 38.2738 54.8897C38.8629 54.889 39.3629 54.4134 39.3951 53.8254L39.7958 46.5771H39.9159L40.2465 53.8149C40.2755 54.4074 40.7797 54.8901 41.3735 54.8896C41.9626 54.8888 42.4627 54.4133 42.4951 53.8253L42.8955 46.577H44.6396C44.8304 46.577 45.0097 46.4926 45.1313 46.3454C45.253 46.198 45.3021 46.0061 45.2647 45.8147L43.0843 37.1139V36.1249C43.6764 37.0207 43.9168 38.0962 44.028 39.1467Z" fill="#1A68B0"/>
<path d="M33.8105 46.2308L34.5507 43.0261L34.6514 41.0376C33.7281 40.8052 33.058 39.9772 33.0511 39.0012C33.0433 38.1071 33.1096 37.2321 33.312 36.3596C33.5143 35.4872 33.8397 34.6603 34.2656 33.8743C34.5181 33.4087 34.8184 32.9662 35.1445 32.5497C35.1845 32.1864 35.1778 31.8219 35.1778 31.4569C35.1778 30.9451 35.1778 30.4333 35.1778 29.9214C35.1778 28.4481 35.1778 26.9746 35.1778 25.5012C35.1778 24.4462 35.1778 23.3913 35.1778 22.3362C35.1778 22.281 35.1778 22.2258 35.1778 22.1706C35.6481 23.1846 35.9775 24.2464 36.2451 25.33C36.8239 23.919 38.0646 23.2045 39.7802 22.9211C39.4968 21.8199 39.0481 20.4478 38.5734 19.4119C37.9672 18.0896 37.2315 16.8352 36.3134 15.7038C35.7139 14.9647 35.0435 14.2859 34.3173 13.6716C33.9629 13.377 33.5943 13.0978 33.2091 12.8445C32.8855 12.6318 32.5378 12.4434 32.1869 12.2766C28.5381 10.5427 25.6411 13.3595 25.5693 13.4231C24.7906 14.1147 24.0121 14.8064 23.2334 15.4982C25.2879 16.9463 26.9862 18.8691 28.1768 21.0807C28.939 22.4964 29.4675 24.0546 29.7294 25.6403C29.9075 26.7182 29.9575 27.7955 29.9485 28.8873C29.9361 30.373 28.6773 31.6123 27.1909 31.5995C26.9654 31.5976 26.7461 31.5686 26.5362 31.5149C26.5362 31.5149 28.5834 38.9826 28.6994 39.4595C28.8562 40.1052 28.91 41.4477 27.415 41.4477C25.7445 41.4477 24.9332 41.4477 24.9332 41.4477L24.7433 44.8002L25.085 52.9859C25.1308 54.0011 25.9924 54.831 27.0097 54.8318C28.0226 54.8327 28.8826 54.0135 28.9337 53.0025L29.6261 39.2887L30.1984 52.9857C30.2442 54.001 31.106 54.831 32.1231 54.8317C33.1361 54.8325 33.996 54.0134 34.0471 53.0023L34.3482 47.0455C33.5635 46.9836 33.8105 46.2308 33.8105 46.2308Z" fill="#1A68B0"/>
<path d="M27.1224 40.8586C27.4084 40.8586 27.6772 40.732 27.8594 40.5114C28.0418 40.2904 28.1211 40.0385 28.0594 39.7161L24.3779 26.3647V24.2509C24.9111 25.0739 25.2881 26.0237 25.5417 26.9676C25.7393 27.7032 25.8424 28.4468 25.9231 29.2025C26.0114 30.0262 26.7513 30.6531 27.5774 30.6105C28.4008 30.5679 29.0674 29.8696 29.0742 29.0456C29.0783 28.538 29.0744 28.0342 29.0495 27.5272C29.0154 26.8309 28.9068 26.1341 28.7653 25.4525C28.4699 24.0311 27.9438 22.6527 27.2202 21.3938C26.4962 20.1333 25.5816 18.9854 24.5271 17.9857C24.0204 17.5053 23.4796 17.0593 22.9112 16.6537C22.4763 16.3433 22.0211 16.0341 21.5335 15.8123C21.4901 15.7926 21.446 15.7752 21.4015 15.7582C19.9622 15.0539 18.2364 15.0451 16.7906 15.7355C16.2769 15.9162 15.8047 16.2428 15.3608 16.5511C14.7986 16.9415 14.2654 17.3726 13.761 17.8349C12.6863 18.8197 11.7699 19.9589 11.0173 21.2056C10.6405 21.8297 10.3185 22.4922 10.0478 23.1689C9.78292 23.8321 9.55125 24.529 9.40717 25.2295C9.26309 25.9287 9.15798 26.6236 9.08982 27.3345C9.03602 27.8953 9.0477 28.4608 9.05186 29.0233C9.05208 29.0306 9.05208 29.0383 9.05208 29.0458C9.05826 29.8747 9.73273 30.5723 10.5598 30.611C11.383 30.6497 12.1147 30.0211 12.2033 29.2023C12.2843 28.4467 12.3874 27.7031 12.5847 26.9677C12.8428 26.007 13.2317 25.0609 13.7677 24.2206V26.204L10.0757 39.7189C10.0204 40.0005 10.0934 40.2888 10.2754 40.5103C10.4576 40.7317 10.7267 40.8588 11.0135 40.8588H14.0865L14.6482 53.2388C14.6955 54.2065 15.5169 54.9968 16.4868 54.9998C17.4552 55.0027 18.2794 54.2226 18.3326 53.2564L19.0122 40.859H19.1666L19.728 53.2391C19.7754 54.2067 20.597 54.997 21.5667 55C22.535 55.0029 23.3595 54.2228 23.4126 53.2566L24.0923 40.8593H27.1224V40.8586Z" fill="#1A68B0"/>
</g>
<defs>
<clipPath id="clip0">
<rect width="55" height="55" fill="white"/>
</clipPath>
</defs>
</svg>
