<svg width="16" height="14" viewBox="0 0 16 14" fill="none" xmlns="http://www.w3.org/2000/svg">
<g clip-path="url(#clip0)">
<path d="M8.24696 0C4.22669 0 0.956055 3.14014 0.956055 7C0.956055 10.8599 4.22669 14 8.24696 14C12.2673 14 15.5379 10.8599 15.5379 7C15.5379 3.14014 12.2673 0 8.24696 0ZM8.24696 12.4699C5.10541 12.4699 2.5497 10.0162 2.5497 7C2.5497 3.98394 5.10541 1.53005 8.24696 1.53005C11.3885 1.53005 13.9442 3.98394 13.9442 7C13.9442 10.0162 11.3885 12.4699 8.24696 12.4699Z" fill="white"/>
<path d="M8.87783 7.00861V4.07474C8.87783 3.74715 8.60134 3.48169 8.26027 3.48169C7.91909 3.48169 7.64258 3.74715 7.64258 4.07474V7.19807C7.64258 7.20739 7.64497 7.21614 7.64544 7.22547C7.63732 7.38672 7.69518 7.55046 7.82345 7.67364L10.1239 9.88213C10.3652 10.1138 10.7562 10.1138 10.9973 9.88213C11.2385 9.65047 11.2386 9.275 10.9973 9.04349L8.87783 7.00861Z" fill="white"/>
</g>
<defs>
<clipPath id="clip0">
<rect x="0.956055" width="14.5818" height="14" fill="white"/>
</clipPath>
</defs>
</svg>
