<svg width="22" height="22" viewBox="0 0 22 22" fill="none" xmlns="http://www.w3.org/2000/svg">
<path d="M12.6012 11.0155L21.6429 2.02328C22.0764 1.59417 22.0764 0.89952 21.6429 0.471509C21.2105 0.0424023 20.5082 0.0424023 20.0758 0.471509L11.0418 9.45611L1.92432 0.337595C1.49193 -0.0958896 0.789614 -0.0958896 0.357224 0.337595C-0.0751666 0.772175 -0.0751666 1.47558 0.357224 1.90907L9.46807 11.021L0.324293 20.1143C-0.108098 20.5434 -0.108098 21.238 0.324293 21.666C0.756683 22.0951 1.459 22.0951 1.89139 21.666L11.0274 12.5804L20.1086 21.6627C20.541 22.0962 21.2433 22.0962 21.6757 21.6627C22.1081 21.2282 22.1081 20.5248 21.6757 20.0913L12.6012 11.0155Z" fill="white"/>
</svg>
