<svg width="18" height="18" viewBox="0 0 18 18" fill="none" xmlns="http://www.w3.org/2000/svg">
<g clip-path="url(#clip0)">
<path d="M14.5369 5.09449C13.9289 2.04413 10.9633 0.0642597 7.91293 0.672216C5.68188 1.11689 3.93739 2.86028 3.49135 5.09105C1.32855 5.34031 -0.222857 7.2956 0.0262579 9.45853C0.255598 11.4491 1.94159 12.9509 3.94536 12.9496H6.76115C7.0722 12.9496 7.32434 12.6974 7.32434 12.3864C7.32434 12.0753 7.0722 11.8232 6.76115 11.8232H3.94536C2.3901 11.814 1.13698 10.5459 1.14604 8.99079C1.15524 7.43554 2.42334 6.18227 3.97859 6.19147C4.26561 6.19147 4.50676 5.97559 4.53834 5.69022C4.82426 3.21857 7.05984 1.44661 9.53163 1.73253C11.6097 1.97286 13.249 3.61216 13.4893 5.69022C13.5366 5.98067 13.7881 6.1934 14.0823 6.19147C15.6376 6.19147 16.8982 7.45215 16.8982 9.00741C16.8982 10.5625 15.6376 11.8232 14.0823 11.8232H11.2665C10.9555 11.8232 10.7033 12.0753 10.7033 12.3864C10.7033 12.6974 10.9555 12.9496 11.2665 12.9496H14.0824C16.2595 12.936 18.0135 11.16 18 8.98296C17.9877 7.00034 16.5048 5.33536 14.5369 5.09449Z" fill="#232323"/>
<path d="M11.0046 14.1042L9.57689 15.5323V8.44429C9.57689 8.13324 9.32475 7.8811 9.01384 7.8811C8.70279 7.8811 8.45065 8.13324 8.45065 8.44429V15.5323L7.02298 14.1042C6.80696 13.8803 6.45032 13.8741 6.22661 14.0903C6.0029 14.3063 5.99672 14.6628 6.21274 14.8865C6.21741 14.8913 6.22194 14.8959 6.22661 14.9004L8.61503 17.2894C8.66722 17.3414 8.72902 17.3828 8.79699 17.4111C8.93556 17.4697 9.09198 17.4697 9.23068 17.4111C9.29866 17.3828 9.36046 17.3414 9.4125 17.2894L11.8009 14.9004C12.0246 14.6844 12.0308 14.3279 11.8148 14.1042C11.5986 13.8805 11.2421 13.8743 11.0184 14.0903C11.0138 14.0948 11.0091 14.0994 11.0046 14.1042Z" fill="#232323"/>
</g>
<defs>
<clipPath id="clip0">
<rect width="18" height="18" fill="white"/>
</clipPath>
</defs>
</svg>
