<svg width="55" height="55" viewBox="0 0 55 55" fill="none" xmlns="http://www.w3.org/2000/svg">
<g clip-path="url(#clip0)">
<path d="M34.1153 47.3542V30.1865C32.7872 29.7647 31.339 29.4148 28.7888 29.4148C25.7665 29.4148 24.292 29.9061 22.7309 30.4264C20.9946 31.005 19.1992 31.6032 15.6541 31.6032C12.2844 31.6032 10.4957 31.0625 8.83575 30.5122L1.10838 43.3896L1.09516 43.4117C0.378661 44.5995 0 45.9632 0 47.3552C0 51.5702 3.42922 54.9993 7.64423 54.9993H37.1095C37.1609 54.9993 37.2122 54.9968 37.2635 54.9959C35.3185 53.0311 34.1153 50.3308 34.1153 47.3542Z" fill="#1A68B0"/>
<path d="M30.1275 20.8643V10.2615H26.9047H17.8479H14.6252V20.8643L10.5381 27.6751C11.8108 28.0669 13.2376 28.381 15.6536 28.381C18.6759 28.381 20.1504 27.8896 21.7114 27.3694C23.4477 26.7908 25.2431 26.1926 28.7883 26.1926C30.9071 26.1926 32.4008 26.4064 33.6304 26.7019L30.1275 20.8643Z" fill="#1A68B0"/>
<path d="M50.0109 19.8623C48.1052 19.8623 47.2362 20.3824 46.1362 21.0408C44.8549 21.8077 43.4028 22.6769 40.6062 22.6769C39.2555 22.6769 38.2172 22.4752 37.3379 22.166V39.1425V47.3544C37.3379 51.57 40.7675 54.9996 44.983 54.9996H45.6343C49.8498 54.9996 53.2795 51.57 53.2795 47.3544V20.6846H53.2796C52.4823 20.2342 51.6008 19.8623 50.0109 19.8623Z" fill="#1A68B0"/>
<path d="M12.7109 0V7.0373H14.6257H15.9337H28.8201H30.1281H32.0429V0H12.7109Z" fill="#1A68B0"/>
<path d="M35.6172 7.03613V10.2589H37.3375V18.6299C38.1347 19.0802 39.0163 19.452 40.6059 19.452C42.5115 19.452 43.3806 18.9318 44.4806 18.2734C45.7618 17.5066 47.2139 16.6374 50.0105 16.6374C51.3615 16.6374 52.3998 16.8392 53.2793 17.1484V10.2589H54.9995V7.03613H35.6172Z" fill="#1A68B0"/>
</g>
<defs>
<clipPath id="clip0">
<rect width="55" height="55" fill="white"/>
</clipPath>
</defs>
</svg>
