<svg width="55" height="55" viewBox="0 0 55 55" fill="none" xmlns="http://www.w3.org/2000/svg">
<path d="M34.0684 1.22217V6.11106C34.0684 8.79995 36.2684 10.9999 38.9572 10.9999H43.8461L34.0684 1.22217Z" fill="#1A68B0"/>
<path d="M38.9579 13.4444C34.9246 13.4444 31.6246 10.1444 31.6246 6.11111V0H14.5135C11.1523 0 8.40234 2.75 8.40234 6.11111V48.8889C8.40234 52.25 11.1523 55 14.5135 55H20.6857C23.9857 55 26.7357 52.3111 26.7357 48.95V42.8389C26.7357 39.4167 29.4857 36.6667 32.9079 36.6667H39.0801C42.3801 36.6667 45.1301 33.9778 45.1301 30.6167V13.4444H38.9579ZM20.6246 31.7778H14.5135C13.8412 31.7778 13.2912 31.2278 13.2912 30.5556C13.2912 29.8833 13.8412 29.3333 14.5135 29.3333H20.6246C21.2968 29.3333 21.8468 29.8833 21.8468 30.5556C21.8468 31.2278 21.2968 31.7778 20.6246 31.7778ZM20.6246 25.6667H14.5135C13.8412 25.6667 13.2912 25.1167 13.2912 24.4444C13.2912 23.7722 13.8412 23.2222 14.5135 23.2222H20.6246C21.2968 23.2222 21.8468 23.7722 21.8468 24.4444C21.8468 25.1167 21.2968 25.6667 20.6246 25.6667ZM20.6246 19.5556H14.5135C13.8412 19.5556 13.2912 19.0056 13.2912 18.3333C13.2912 17.6611 13.8412 17.1111 14.5135 17.1111H20.6246C21.2968 17.1111 21.8468 17.6611 21.8468 18.3333C21.8468 19.0056 21.2968 19.5556 20.6246 19.5556ZM14.5135 7.33333C13.8412 7.33333 13.2912 6.78333 13.2912 6.11111C13.2912 5.43889 13.8412 4.88889 14.5135 4.88889H26.7357C27.4079 4.88889 27.9579 5.43889 27.9579 6.11111C27.9579 6.78333 27.4079 7.33333 26.7357 7.33333H14.5135ZM29.7912 31.7778H26.7357C26.0635 31.7778 25.5135 31.2278 25.5135 30.5556C25.5135 29.8833 26.0635 29.3333 26.7357 29.3333H29.7912C30.4635 29.3333 31.0135 29.8833 31.0135 30.5556C31.0135 31.2278 30.4635 31.7778 29.7912 31.7778ZM29.7912 25.6667H26.7357C26.0635 25.6667 25.5135 25.1167 25.5135 24.4444C25.5135 23.7722 26.0635 23.2222 26.7357 23.2222H29.7912C30.4635 23.2222 31.0135 23.7722 31.0135 24.4444C31.0135 25.1167 30.4635 25.6667 29.7912 25.6667ZM29.7912 19.5556H26.7357C26.0635 19.5556 25.5135 19.0056 25.5135 18.3333C25.5135 17.6611 26.0635 17.1111 26.7357 17.1111H29.7912C30.4635 17.1111 31.0135 17.6611 31.0135 18.3333C31.0135 19.0056 30.4635 19.5556 29.7912 19.5556ZM38.9579 31.7778H35.9023C35.2301 31.7778 34.6801 31.2278 34.6801 30.5556C34.6801 29.8833 35.2301 29.3333 35.9023 29.3333H38.9579C39.6301 29.3333 40.1801 29.8833 40.1801 30.5556C40.1801 31.2278 39.6301 31.7778 38.9579 31.7778ZM38.9579 25.6667H35.9023C35.2301 25.6667 34.6801 25.1167 34.6801 24.4444C34.6801 23.7722 35.2301 23.2222 35.9023 23.2222H38.9579C39.6301 23.2222 40.1801 23.7722 40.1801 24.4444C40.1801 25.1167 39.6301 25.6667 38.9579 25.6667ZM38.9579 19.5556H35.9023C35.2301 19.5556 34.6801 19.0056 34.6801 18.3333C34.6801 17.6611 35.2301 17.1111 35.9023 17.1111H38.9579C39.6301 17.1111 40.1801 17.6611 40.1801 18.3333C40.1801 19.0056 39.6301 19.5556 38.9579 19.5556Z" fill="#1A68B0"/>
<path d="M46.2317 41.9223C45.7428 41.4334 45.0094 41.4334 44.5205 41.9223L35.0483 51.3946C34.5594 51.8834 34.5594 52.6168 35.0483 53.1057C35.2928 53.3501 35.5983 53.4723 35.9039 53.4723C36.2094 53.4723 36.515 53.3501 36.7594 53.1057L46.2317 43.6334C46.7205 43.1446 46.7205 42.4112 46.2317 41.9223Z" fill="#1A68B0"/>
</svg>
