<svg width="55" height="55" viewBox="0 0 55 55" fill="none" xmlns="http://www.w3.org/2000/svg">
<path d="M46.2416 39.6064H33.0493V37.9214H25.2279C24.5038 37.9214 23.7904 37.7435 23.1512 37.417V39.6064H9.95893C8.65331 39.6064 7.59473 40.6649 7.59473 41.9705C7.59473 43.2761 8.65319 44.3346 9.95893 44.3346H13.7279C13.6698 44.5342 13.6371 44.7445 13.6371 44.9628C13.6371 46.2023 14.6419 47.2071 15.8814 47.2071C17.1209 47.2071 18.1257 46.2023 18.1257 44.9628C18.1257 44.7445 18.093 44.534 18.0349 44.3346H38.1658C38.1077 44.5342 38.075 44.7445 38.075 44.9628C38.075 46.2023 39.0798 47.2071 40.3193 47.2071C41.5588 47.2071 42.5636 46.2023 42.5636 44.9628C42.5636 44.7445 42.5309 44.534 42.4728 44.3346H46.2418C47.5474 44.3346 48.606 43.2761 48.606 41.9705C48.606 40.6649 47.5473 39.6064 46.2416 39.6064Z" fill="#1A68B0"/>
<path d="M50.9436 26.75C50.9436 25.5139 49.9415 24.5117 48.7054 24.5117H48.2383V28.9882H48.7054C49.9415 28.9882 50.9436 27.9861 50.9436 26.75Z" fill="#1A68B0"/>
<path d="M12.7208 21.5276L20.7364 26.8216L20.79 21.7547L16.4634 19.7174C24.1415 21.0847 23.636 21.0073 23.8712 21.0073C24.3758 21.0073 24.8645 20.8022 25.2196 20.4308L30.3681 15.0436C31.0799 14.2989 31.053 13.1182 30.3083 12.4065C29.5638 11.6946 28.3831 11.7216 27.6712 12.4661L23.2136 17.1304L17.1174 16.0448L21.8802 15.6262L18.8729 13.2818C17.6615 12.3375 15.9141 12.5538 14.9698 13.7652L12.0604 17.4972C11.0641 18.7749 11.3674 20.6337 12.7208 21.5276Z" fill="#1A68B0"/>
<path d="M8.55235 16.0266C10.826 16.0266 12.6692 14.1834 12.6692 11.9098C12.6692 9.63613 10.826 7.79297 8.55235 7.79297C6.2787 7.79297 4.43555 9.63613 4.43555 11.9098C4.43555 14.1834 6.2787 16.0266 8.55235 16.0266Z" fill="#1A68B0"/>
<path d="M53.0614 32.5205H48.2372V33.3619C48.2372 34.5263 47.7979 35.5896 47.0771 36.3963H53.0616C54.1319 36.3963 54.9995 35.5287 54.9995 34.4583C54.9995 33.388 54.1316 32.5205 53.0614 32.5205Z" fill="#1A68B0"/>
<path d="M20.7155 28.8276L3.00298 17.1784C2.10889 16.5903 0.907136 16.8384 0.319021 17.7327C-0.269094 18.6269 -0.0209815 19.8286 0.873232 20.4167L20.6699 33.4367C20.667 33.2749 20.6625 33.8391 20.7155 28.8276Z" fill="#1A68B0"/>
<path d="M23.0284 22.8089L22.9171 33.3372C22.9035 34.6224 23.9426 35.6718 25.2272 35.6718H43.6775C44.9534 35.6718 45.9877 34.6374 45.9877 33.3616V23.9748C45.9877 21.8401 44.5824 19.9602 42.5351 19.3559L31.9195 16.2227C31.8082 16.3532 32.2042 15.9345 26.6242 21.773C26.0807 22.342 25.0484 23.76 23.0284 22.8089Z" fill="#1A68B0"/>
</svg>
