<svg width="50" height="50" viewBox="0 0 50 50" fill="none" xmlns="http://www.w3.org/2000/svg">
<g clip-path="url(#clip0)">
<path d="M37.4072 15.3739C35.9131 14.775 35.4814 14.4128 35.4814 13.7587C35.4814 13.2353 35.8779 12.6239 36.9956 12.6239C37.9842 12.6239 38.7423 13.0137 38.7491 13.017C38.8289 13.0596 38.9184 13.0823 39.007 13.0823C39.2233 13.0823 39.4147 12.9514 39.494 12.7487L39.7656 12.0545C39.8602 11.8015 39.7167 11.5811 39.5338 11.5021C38.9251 11.2371 37.7356 11.0321 37.7234 11.03C37.7043 11.0266 37.6376 11.0124 37.6376 10.9344L37.6338 9.92737C37.6338 9.6241 37.3806 9.3772 37.0697 9.3772H36.5825C36.2719 9.3772 36.0188 9.62396 36.0188 9.92751L36.0201 10.9863C36.0201 11.0675 35.9321 11.1027 35.9 11.1102C34.3984 11.4678 33.46 12.5678 33.46 13.9552C33.46 15.6848 34.8897 16.4663 36.4334 17.053C37.6675 17.5375 38.1709 18.0288 38.1709 18.7493C38.1709 19.5335 37.4579 20.0811 36.4365 20.0811C35.5643 20.0811 34.3839 19.5282 34.3722 19.5226C34.2967 19.4868 34.2166 19.4688 34.1343 19.4688C33.9097 19.4688 33.7141 19.6046 33.6359 19.815L33.3766 20.5171C33.2844 20.7792 33.4263 20.992 33.608 21.0867C34.3329 21.4643 35.7357 21.6855 35.7981 21.6953C35.8149 21.6977 35.9003 21.7277 35.9003 21.8058V22.8599C35.9003 23.1632 36.1535 23.4101 36.4645 23.4101H36.9679C37.2791 23.4101 37.5323 23.1633 37.5323 22.8599V21.7505C37.5323 21.6468 37.6089 21.6376 37.6246 21.6338C39.2243 21.2745 40.2097 20.1041 40.2097 18.6345C40.2092 17.125 39.371 16.1497 37.4072 15.3739Z" fill="white"/>
<path d="M36.778 3.17212C29.4758 3.17212 23.5566 9.09172 23.5566 16.3935C23.5566 23.6955 29.4758 29.6152 36.778 29.6152C44.08 29.6152 49.9993 23.6955 49.9993 16.3935C49.9993 9.09172 44.08 3.17212 36.778 3.17212ZM36.778 26.5511C31.1681 26.5511 26.6207 22.0032 26.6207 16.3937C26.6207 10.7841 31.1681 6.23642 36.778 6.23642C42.3878 6.23642 46.935 10.7841 46.935 16.3937C46.935 22.0032 42.3878 26.5511 36.778 26.5511Z" fill="white"/>
<path d="M47.3137 36.0221C44.5023 37.5738 40.6354 39.0086 36.7791 39.6134C33.3481 40.1515 26.8934 38.8538 26.8934 37.3213C26.8934 36.7405 32.5544 38.7522 35.9788 37.8386C38.6047 37.138 38.2319 34.6817 36.8036 34.3577C35.3836 34.0354 27.0645 30.9878 23.511 30.8826C21.8371 30.8332 17.7045 31.4648 15.7047 31.7905C15.0197 31.9019 14.5901 31.8897 14.5473 32.5453C14.3483 35.5921 13.9561 41.8227 13.7423 45.0772C13.7378 45.146 13.8334 46.0708 14.5965 45.42C15.4318 44.7077 16.6033 43.9183 17.6869 44.1641C19.3868 44.5498 34.094 47.2441 36.1227 46.7726C39.0248 46.098 47.24 41.2294 48.8152 39.7161C51.2566 37.3702 49.3587 34.8934 47.3137 36.0221Z" fill="white"/>
<path d="M10.4886 31.6717L2.7839 31.292C2.18905 31.2627 1.58152 31.711 1.43369 32.2878L0.0327394 45.007C-0.114951 45.584 0.251175 46.075 0.846305 46.098L9.38501 46.0971C9.98029 46.1201 10.5042 45.6531 10.5499 45.0592L11.4876 32.8046C11.533 32.2108 11.0835 31.701 10.4886 31.6717ZM5.95276 44.4121C4.77617 44.4121 3.82252 43.4583 3.82252 42.2818C3.82252 41.1052 4.77631 40.1516 5.95276 40.1516C7.12921 40.1516 8.083 41.1054 8.083 42.2818C8.083 43.4584 7.12935 44.4121 5.95276 44.4121Z" fill="white"/>
</g>
<defs>
<clipPath id="clip0">
<rect width="50" height="50" fill="white"/>
</clipPath>
</defs>
</svg>
