<svg width="50" height="50" viewBox="0 0 50 50" fill="none" xmlns="http://www.w3.org/2000/svg">
<path d="M25 0C20.1534 0 16.2109 4.04014 16.2109 8.88672C16.2109 13.7333 20.1534 17.6758 25 17.6758C29.8466 17.6758 33.7891 13.7333 33.7891 8.88672C33.7891 4.04014 29.8466 0 25 0Z" fill="white"/>
<path d="M27.9287 17.6758H24.999H22.0693C20.0031 17.6758 18.0065 18.2099 16.1914 19.1185C19.2743 19.9503 22.1771 21.1483 24.999 22.7681C27.8211 21.1483 30.7237 19.9503 33.8066 19.1185C31.9915 18.2099 29.9949 17.6758 27.9287 17.6758Z" fill="white"/>
<path d="M47.0703 26.4648C45.4522 26.4648 44.1406 27.7765 44.1406 29.3945V35.2539C44.1406 36.8718 45.4522 38.1836 47.0703 38.1836C48.6884 38.1836 50 36.8718 50 35.2539V29.3945C50 27.7765 48.6884 26.4648 47.0703 26.4648Z" fill="white"/>
<path d="M2.92969 26.4648C1.31162 26.4648 0 27.7765 0 29.3945V35.2539C0 36.8718 1.31162 38.1836 2.92969 38.1836C4.54775 38.1836 5.85938 36.8718 5.85938 35.2539V29.3945C5.85938 27.7765 4.54775 26.4648 2.92969 26.4648Z" fill="white"/>
<path d="M4.39453 20.6055C3.58486 20.6055 2.92969 21.2606 2.92969 22.0703V23.5352C6.16123 23.5352 8.78906 26.163 8.78906 29.3945V35.2539C8.78906 38.4854 6.16123 41.1133 2.92969 41.1133V42.5781C2.92969 43.3878 3.58486 44.043 4.39453 44.043C11.9044 44.043 17.9092 46.4146 23.5352 50V25.351C17.8838 22.1107 11.8069 20.6055 4.39453 20.6055Z" fill="white"/>
<path d="M47.0703 23.5352V22.0703C47.0703 21.2606 46.4151 20.6055 45.6055 20.6055C38.1931 20.6055 32.1162 22.1107 26.4648 25.351V50C32.0908 46.4146 38.0956 44.043 45.6055 44.043C46.4151 44.043 47.0703 43.3878 47.0703 42.5781V41.1133C43.8388 41.1133 41.2109 38.4854 41.2109 35.2539V29.3945C41.2109 26.163 43.8388 23.5352 47.0703 23.5352Z" fill="white"/>
</svg>
