<svg width="50" height="50" viewBox="0 0 50 50" fill="none" xmlns="http://www.w3.org/2000/svg">
<g clip-path="url(#clip0)">
<path d="M21.8744 16.6667H17.7077C17.1327 16.6667 16.666 17.1334 16.666 17.7084V30.2083C16.666 30.7833 17.1327 31.25 17.7077 31.25H21.8744C22.4494 31.25 22.9161 30.7833 22.9161 30.2083V17.7084C22.9161 17.1334 22.4494 16.6667 21.8744 16.6667Z" fill="white"/>
<path d="M13.5423 22.9167H9.37567C8.80068 22.9167 8.33398 23.3834 8.33398 23.9584V30.2084C8.33398 30.7834 8.80068 31.2501 9.37567 31.2501H13.5423C14.1173 31.2501 14.584 30.7834 14.584 30.2084V23.9584C14.5839 23.3834 14.1173 22.9167 13.5423 22.9167Z" fill="white"/>
<path d="M30.2083 10.4167H26.0417C25.4667 10.4167 25 10.8834 25 11.4584V30.2083C25 30.7832 25.4667 31.2499 26.0417 31.2499H30.2083C30.7833 31.2499 31.25 30.7832 31.25 30.2083V11.4584C31.25 10.8834 30.7833 10.4167 30.2083 10.4167Z" fill="white"/>
<path d="M49.3891 46.4435L36.9538 34.0082C39.8955 30.4165 41.6663 25.8291 41.6663 20.8333C41.6663 9.34595 32.3206 0.000244141 20.8332 0.000244141C9.34581 0.000244141 0 9.34595 0 20.8333C0 32.3207 9.34571 41.6664 20.8331 41.6664C25.8288 41.6664 30.4163 39.8957 34.008 36.954L46.4433 49.3893C46.8495 49.7956 47.3828 49.9998 47.9162 49.9998C48.4496 49.9998 48.9829 49.7956 49.3892 49.3893C50.2037 48.5748 50.2037 47.2581 49.3891 46.4435ZM20.8331 37.4999C11.6436 37.4999 4.16656 30.0229 4.16656 20.8333C4.16656 11.6438 11.6436 4.1668 20.8331 4.1668C30.0226 4.1668 37.4996 11.6439 37.4996 20.8333C37.4996 30.0228 30.0227 37.4999 20.8331 37.4999Z" fill="white"/>
</g>
<defs>
<clipPath id="clip0">
<rect width="50" height="50" fill="white"/>
</clipPath>
</defs>
</svg>
