<svg width="50" height="50" viewBox="0 0 50 50" fill="none" xmlns="http://www.w3.org/2000/svg">
<path d="M39.6484 45.5078H34.8442L33.8676 42.5781H16.1324L15.1558 45.5078H10.3516C9.54208 45.5078 8.88672 46.1632 8.88672 46.9727C8.88672 47.7821 9.54208 48.4375 10.3516 48.4375H39.6484C40.4579 48.4375 41.1133 47.7821 41.1133 46.9727C41.1133 46.1632 40.4579 45.5078 39.6484 45.5078Z" fill="white"/>
<path d="M39.6484 10.3516C38.8401 10.3516 38.1836 11.0081 38.1836 11.8164C38.1836 12.6247 38.8401 13.2812 39.6484 13.2812C40.4568 13.2812 41.1133 12.6247 41.1133 11.8164C41.1133 11.0081 40.4568 10.3516 39.6484 10.3516Z" fill="white"/>
<path d="M45.5078 1.5625H4.39453C1.97144 1.5625 0 3.53394 0 5.95703V30.8594H8.88672V26.4648C8.88672 25.6554 9.54208 25 10.3516 25H12.6148C12.7663 24.5739 12.9395 24.1558 13.1355 23.7453L11.5345 22.1432C10.9623 21.571 10.9623 20.644 11.5345 20.0718L15.6773 15.929C16.2495 15.3568 17.1764 15.3568 17.7486 15.929L19.3508 17.5312C19.7613 17.3351 20.179 17.1608 20.6055 17.009V14.7461C20.6055 13.9366 21.2608 13.2812 22.0703 13.2812H27.9297C28.7392 13.2812 29.3945 13.9366 29.3945 14.7461V17.0094C29.8206 17.1608 30.2387 17.3355 30.6492 17.5312L32.2514 15.929C32.8236 15.3572 33.7505 15.3572 34.3227 15.929L38.4655 20.0718C39.0377 20.644 39.0377 21.5714 38.4655 22.1432L36.8645 23.7453C37.0605 24.1562 37.2337 24.5739 37.3852 25H39.6484C40.4579 25 41.1133 25.6554 41.1133 26.4648V30.8594H50V5.95703C50 3.53394 47.9309 1.5625 45.5078 1.5625ZM39.6484 16.2109C37.2253 16.2109 35.2539 14.2395 35.2539 11.8164C35.2539 9.39331 37.2253 7.42188 39.6484 7.42188C42.0715 7.42188 44.043 9.39331 44.043 11.8164C44.043 14.2395 42.0715 16.2109 39.6484 16.2109Z" fill="white"/>
<path d="M20.6055 29.3945C20.6055 29.9007 20.7222 30.389 20.8897 30.8594H29.1103C29.2778 30.389 29.3945 29.9007 29.3945 29.3945C29.3945 26.9714 27.4231 25 25 25C22.5765 25 20.6055 26.9714 20.6055 29.3945Z" fill="white"/>
<path d="M15.115 26.8311C14.9479 27.4776 14.3642 27.9297 13.6959 27.9297H11.8164V30.8594H17.8684C17.77 30.3768 17.6758 29.892 17.6758 29.3945C17.6758 25.3563 20.9618 22.0703 25 22.0703C29.0382 22.0703 32.3242 25.3563 32.3242 29.3945C32.3242 29.892 32.23 30.3768 32.1316 30.8594H38.1836V27.9297H36.3041C35.6358 27.9297 35.0521 27.4776 34.885 26.8311C34.6516 25.9228 34.2869 25.0443 33.8005 24.2203C33.4614 23.6454 33.5545 22.913 34.0263 22.4407L35.3584 21.1075L33.287 19.0361L31.9538 20.3693C31.4816 20.8431 30.7476 20.9373 30.1727 20.594C29.3503 20.1092 28.4733 19.743 27.5635 19.5095C26.9169 19.3424 26.4648 18.7588 26.4648 18.0904V16.2109H23.5352V18.0904C23.5352 18.7588 23.0831 19.3424 22.4365 19.5095C21.5267 19.743 20.6497 20.1092 19.8273 20.594C19.2551 20.9373 18.5196 20.8431 18.0462 20.3693L16.713 19.0361L14.6416 21.1075L15.9737 22.4407C16.4455 22.913 16.5386 23.6454 16.1995 24.2203C15.7131 25.0443 15.3484 25.9228 15.115 26.8311Z" fill="white"/>
<path d="M0 35.2539C0 37.677 1.97144 39.6484 4.39453 39.6484H45.5078C47.9309 39.6484 50 37.677 50 35.2539V33.7891H0V35.2539Z" fill="white"/>
</svg>
