<svg width="50" height="50" viewBox="0 0 50 50" fill="none" xmlns="http://www.w3.org/2000/svg">
<g clip-path="url(#clip0)">
<path d="M26.4648 2.92968C26.2316 2.92968 23.221 2.92968 22.0703 2.92968C22.0703 1.31162 20.7587 0 19.1406 0C17.5225 0 16.2109 1.31162 16.2109 2.92968C15.148 2.92968 14.5492 2.92968 11.8164 2.92968C11.0074 2.92968 10.3516 3.6832 10.3516 4.49218V5.95702C10.3516 7.57508 11.6632 8.8867 13.2812 8.8867H25C26.618 8.8867 27.9297 7.57508 27.9297 5.95702V4.49218C27.9297 3.6832 27.2738 2.92968 26.4648 2.92968Z" fill="white"/>
<path d="M33.8867 5.95703H30.957C30.957 9.18857 28.2315 11.8164 25 11.8164H13.2812C10.0497 11.8164 7.42186 9.18857 7.42186 5.95703H4.49218C2.06894 5.95703 0 7.92832 0 10.3516V45.5077C0 47.931 2.06894 49.9999 4.49218 49.9999H33.8867C36.3099 49.9999 38.2812 47.931 38.2812 45.5077V10.3516C38.2812 7.92832 36.3099 5.95703 33.8867 5.95703ZM6.38622 17.2466C5.81405 16.6744 5.81405 15.7473 6.38622 15.1752C6.95838 14.603 7.88543 14.603 8.4576 15.1752L10.3515 17.0692L12.2456 15.1752C12.8177 14.603 13.7448 14.603 14.317 15.1752C14.8891 15.7473 14.8891 16.6744 14.317 17.2466L12.4229 19.1406L14.317 21.0346C14.8891 21.6068 14.8891 22.5339 14.317 23.106C13.7448 23.6782 12.8177 23.6782 12.2456 23.106L10.3515 21.212L8.4575 23.106C7.88534 23.6782 6.95829 23.6782 6.38612 23.106C5.81395 22.5339 5.81395 21.6068 6.38612 21.0346L8.28016 19.1406L6.38622 17.2466ZM17.2466 37.7543L11.3873 43.6137C11.1012 43.8998 10.7263 44.0429 10.3516 44.0429C9.97693 44.0429 9.60203 43.8998 9.316 43.6137L6.38632 40.684C5.81395 40.1119 5.81395 39.1849 6.38622 38.6127C6.95838 38.0406 7.88543 38.0406 8.4576 38.6127L10.3515 40.5067L15.1753 35.683C15.7474 35.1108 16.6745 35.1108 17.2466 35.683C17.8188 36.2551 17.8188 37.1822 17.2466 37.7543ZM17.2466 27.5004L11.3873 33.3598C11.1012 33.6459 10.7263 33.789 10.3516 33.789C9.97693 33.789 9.60203 33.6459 9.316 33.3598L6.38632 30.4301C5.81395 29.858 5.81395 28.931 6.38622 28.3588C6.95838 27.7867 7.88543 27.7867 8.4576 28.3588L10.3515 30.2528L15.1753 25.4291C15.7474 24.8569 16.6745 24.8569 17.2466 25.4291C17.8188 26.0012 17.8188 26.9283 17.2466 27.5004ZM30.957 41.1132H22.0703C21.2606 41.1132 20.6054 40.458 20.6054 39.6484C20.6054 38.8387 21.2606 38.1835 22.0703 38.1835H30.957C31.7666 38.1835 32.4218 38.8387 32.4218 39.6484C32.4218 40.458 31.7666 41.1132 30.957 41.1132ZM30.957 30.8593H22.0703C21.2606 30.8593 20.6054 30.2042 20.6054 29.3945C20.6054 28.5848 21.2606 27.9296 22.0703 27.9296H30.957C31.7666 27.9296 32.4218 28.5848 32.4218 29.3945C32.4218 30.2042 31.7666 30.8593 30.957 30.8593ZM30.957 20.6054H22.0703C21.2606 20.6054 20.6054 19.9503 20.6054 19.1406C20.6054 18.3309 21.2606 17.6758 22.0703 17.6758H30.957C31.7666 17.6758 32.4218 18.3309 32.4218 19.1406C32.4218 19.9503 31.7666 20.6054 30.957 20.6054Z" fill="white"/>
<path d="M45.6055 8.88672C43.1822 8.88672 41.2109 10.858 41.2109 13.2812V17.6758H50V13.2812C50 10.858 48.0287 8.88672 45.6055 8.88672Z" fill="white"/>
<path d="M41.2129 20.6055V36.1121L41.642 35.683C43.8278 33.4971 47.3869 33.4971 49.5728 35.683L50.002 36.1122V20.6055H41.2129Z" fill="white"/>
<path d="M47.4986 37.7544C46.4544 36.7101 44.7549 36.7101 43.7106 37.7544L42.0352 39.4299L44.2156 45.9712C44.4144 46.5692 44.9737 46.9726 45.6046 46.9726C46.2354 46.9726 46.7948 46.5692 46.9936 45.9712L49.1741 39.4299L47.4986 37.7544Z" fill="white"/>
</g>
<defs>
<clipPath id="clip0">
<rect width="50" height="50" fill="white"/>
</clipPath>
</defs>
</svg>
