<svg width="50" height="50" viewBox="0 0 50 50" fill="none" xmlns="http://www.w3.org/2000/svg">
<path d="M34.291 9.45312V8.1125C34.291 6.98438 33.3785 6.07188 32.2488 6.07188H29.2379C29.5238 5.48906 29.6863 4.85938 29.6863 4.18437C29.6863 1.88125 27.8145 0 25.5113 0C23.2098 0 21.3363 1.88437 21.3363 4.18906C21.3363 4.86562 21.4988 5.49062 21.7848 6.07344H17.7504C16.6223 6.07344 15.7098 6.98594 15.7098 8.11406V9.45312H10.5691C8.74258 9.45312 7.25977 10.9344 7.25977 12.7609V46.6906C7.25977 48.5187 8.74102 50 10.5691 50H39.4316C41.2598 50 42.7395 48.5187 42.7395 46.6906V12.7609C42.7395 10.9344 41.2566 9.45312 39.4316 9.45312H34.291ZM23.0238 4.18594C23.0238 2.8125 24.141 1.6875 25.5113 1.6875C26.8816 1.6875 27.9988 2.81406 27.9988 4.18906C27.9988 4.93906 27.666 5.61875 27.1441 6.07344H23.8801C23.3551 5.61875 23.0238 4.93594 23.0238 4.18594ZM39.3598 44.9031C39.3598 45.85 38.591 46.6219 37.6426 46.6219H12.3566C11.4082 46.6219 10.6395 45.8531 10.6395 44.9031V14.5484C10.6395 13.6 11.4082 12.8313 12.3566 12.8313H15.7082C15.7082 13.7641 16.4645 14.5203 17.3973 14.5203H32.6004C33.5348 14.5203 34.291 13.7641 34.291 12.8313H37.6441C38.591 12.8313 39.3613 13.5984 39.3613 14.5484V44.9031H39.3598Z" fill="white"/>
<path d="M23.6387 30.5813L21.5793 28.5188C21.348 28.2875 21.0324 28.1563 20.7043 28.1563C20.3762 28.1563 20.0621 28.2875 19.8293 28.5188L19.1902 29.1578C18.7074 29.6406 18.7074 30.4235 19.1902 30.9063L22.8074 34.5266C23.0434 34.761 23.3668 34.8922 23.6996 34.886C24.034 34.8813 24.3527 34.7422 24.5824 34.4985L30.8652 27.836C31.334 27.3406 31.3121 26.5594 30.8152 26.0891L30.159 25.4703C29.9215 25.2438 29.6043 25.1235 29.2746 25.1328C28.948 25.1422 28.6371 25.2828 28.4105 25.5203L23.6387 30.5813Z" fill="white"/>
<path d="M24.9984 17.0359C18.1922 17.0359 12.6562 22.5796 12.6562 29.3953C12.6562 36.2062 18.1922 41.7515 24.9984 41.7515C31.8031 41.7515 37.3422 36.2062 37.3422 29.3953C37.3422 22.5796 31.8062 17.0359 24.9984 17.0359ZM24.9984 38.3765C20.0531 38.3765 16.0312 34.3484 16.0312 29.3953C16.0312 24.4421 20.0531 20.4125 24.9984 20.4125C29.9422 20.4125 33.9672 24.4406 33.9672 29.3953C33.9672 34.3468 29.9422 38.3765 24.9984 38.3765Z" fill="white"/>
</svg>
