<svg width="50" height="50" viewBox="0 0 50 50" fill="none" xmlns="http://www.w3.org/2000/svg">
<path d="M46.1663 42.4835C46.1663 42.4835 40.6168 32.9456 39.6213 31.235C40.7539 30.8895 41.9604 30.5844 42.4617 29.7188C43.2971 28.2765 41.81 25.9106 42.2005 24.3647C42.6028 22.7736 44.9774 21.3969 44.9774 19.7796C44.9774 18.204 42.5224 16.3632 42.1198 14.7815C41.7266 13.2359 43.2093 10.8673 42.3712 9.42682C41.533 7.98616 38.7413 8.10453 37.5921 6.9987C36.4097 5.86072 36.4133 3.07642 34.9871 2.3138C33.5551 1.54835 31.2278 3.09534 29.6378 2.72889C28.066 2.36664 26.6617 0 25.0198 0C23.3536 0 20.7035 2.68457 20.2879 2.78119C18.6987 3.15061 16.3684 1.60739 14.9379 2.37609C13.5131 3.14128 13.5219 5.92585 12.3416 7.06572C11.1943 8.17358 8.40241 8.06035 7.56682 9.50262C6.73137 10.9446 8.21851 13.31 7.82815 14.8568C7.4367 16.4074 4.9794 17.9786 4.9794 19.7719C4.9794 21.3893 7.35995 22.7617 7.76464 24.352C8.15797 25.8976 6.6753 28.2659 7.51345 29.7069C7.96975 30.4913 9.00504 30.8133 10.039 31.1229C10.1596 31.1589 10.3879 31.2939 10.2333 31.5192C9.52594 32.7401 3.83263 42.5659 3.83263 42.5659C3.37971 43.3475 3.74751 44.0174 4.64971 44.0554L9.06585 44.2395C9.96805 44.2775 11.0998 44.9331 11.5814 45.697L13.9379 49.4363C14.4195 50.2001 15.1836 50.1858 15.6364 49.4044C15.6364 49.4044 22.2298 38.021 22.2325 38.0178C22.3648 37.8632 22.4978 37.895 22.5614 37.949C23.2828 38.5633 24.2885 39.176 25.1279 39.176C25.9511 39.176 26.7133 38.5992 27.4672 37.9559C27.5286 37.9036 27.6779 37.7965 27.7871 38.0189C27.7888 38.0224 34.375 49.3434 34.375 49.3434C34.829 50.1239 35.5933 50.1371 36.0733 49.3724L38.4232 45.6286C38.9034 44.8642 40.034 44.206 40.9362 44.1667L45.3519 43.9743C46.2537 43.9347 46.6203 43.2638 46.1663 42.4835ZM32.3181 32.2439C27.4354 35.0846 21.5745 34.7802 17.098 31.9565C10.5385 27.755 8.38025 19.0635 12.3235 12.2576C16.3117 5.3732 25.0787 2.94401 32.0251 6.72725C32.0616 6.74711 32.0977 6.76765 32.1339 6.78791C32.1854 6.81643 32.2367 6.84534 32.2879 6.87453C34.4309 8.11007 36.2893 9.90325 37.6199 12.1904C41.6868 19.181 39.3085 28.1771 32.3181 32.2439Z" fill="white"/>
<path d="M31.2015 8.93189C31.1812 8.92013 31.1607 8.90919 31.1404 8.89757C27.4297 6.74996 22.7002 6.59295 18.7365 8.89905C12.8544 12.3211 10.8529 19.8904 14.2749 25.7724C15.3191 27.5673 16.7501 29.0001 18.401 30.0284C18.5414 30.1173 18.6834 30.2047 18.8285 30.2888C24.7169 33.7002 32.2822 31.685 35.6934 25.7968C39.1045 19.9084 37.0899 12.3433 31.2015 8.93189ZM32.6746 18.558L30.6128 20.5677C29.9742 21.19 29.575 22.4185 29.726 23.2975L30.2127 26.1352C30.3635 27.0141 29.8411 27.3937 29.0517 26.9787L26.5032 25.6389C25.7138 25.2239 24.4222 25.2239 23.6328 25.6389L21.0845 26.9787C20.2951 27.3937 19.7726 27.0141 19.9234 26.1352L20.4101 23.2975C20.5609 22.4185 20.1617 21.19 19.5231 20.5677L17.4615 18.558C16.8228 17.9356 17.0225 17.3214 17.9049 17.193L20.7541 16.779C21.6366 16.6508 22.6816 15.8915 23.0763 15.0919L24.3505 12.5101C24.7451 11.7105 25.391 11.7105 25.7856 12.5101L27.0599 15.0919C27.4546 15.8915 28.4995 16.6508 29.3821 16.779L32.2312 17.193C33.1136 17.3214 33.3131 17.9356 32.6746 18.558Z" fill="white"/>
</svg>
