<svg width="50" height="50" viewBox="0 0 50 50" fill="none" xmlns="http://www.w3.org/2000/svg">
<g clip-path="url(#clip0)">
<path d="M15.3736 22.2758C17.6633 27.3288 22.5653 29.5283 24.9985 29.5283C26.5983 29.5283 29.2655 28.5766 31.5557 26.4889C30.7183 26.5473 29.8233 26.577 28.8669 26.577C28.6425 26.577 28.407 26.5749 28.1554 26.571C27.6733 26.9423 27.0761 27.1516 26.4563 27.1516H24.4185C22.8828 27.1516 21.6335 25.9023 21.6335 24.3666C21.6335 22.8309 22.8828 21.5816 24.4185 21.5816H26.4563C27.1925 21.5816 27.881 21.8685 28.3917 22.3634C28.5614 22.3653 28.7286 22.3662 28.8927 22.3662C31.5234 22.3662 33.257 22.1249 34.3912 21.8339C34.244 21.4759 34.1639 21.0842 34.1639 20.6753V13.614C34.1639 12.8794 34.4365 12.1753 34.908 11.6313C34.6563 9.67299 34.1997 8.17792 33.5183 7.07505C32.1141 4.80234 29.4068 3.7439 24.9985 3.7439C21.3414 3.7439 18.816 4.50305 17.2781 6.0647C16.086 7.2753 15.3952 9.00269 15.0723 11.6115C15.5543 12.1575 15.833 12.8688 15.833 13.614V20.6753C15.8332 21.2629 15.6643 21.8112 15.3736 22.2758Z" fill="white"/>
<path d="M10.3645 22.3422H12.809C13.7293 22.3422 14.476 21.5958 14.476 20.6751V13.6138C14.476 12.9987 14.1419 12.4627 13.6463 12.1739C14.1922 6.39182 16.4234 2.38506 24.9999 2.38506C29.9251 2.38506 32.9996 3.64851 34.6755 6.36084C35.6506 7.9392 36.1198 9.97783 36.3389 12.1826C35.8512 12.4735 35.5238 13.0047 35.5238 13.6137V20.675C35.5238 21.4688 36.0791 22.1316 36.8221 22.2997C35.7445 23.0045 33.5135 23.7244 28.8941 23.7244C28.5199 23.7244 28.1299 23.7196 27.7237 23.7099C27.4859 23.2527 27.0088 22.9398 26.4578 22.9398H24.4201C23.6324 22.9398 22.9936 23.5785 22.9936 24.3663C22.9936 25.1541 23.6324 25.7928 24.4201 25.7928H26.4578C26.9338 25.7928 27.3544 25.5587 27.6134 25.2005C28.0424 25.2113 28.4625 25.2181 28.8684 25.2181C34.0754 25.218 37.3855 24.3292 38.7261 22.5658C38.7832 22.4908 38.8352 22.4161 38.8826 22.3422H39.6357C40.5561 22.3422 41.3026 21.5958 41.3026 20.6751V13.6138C41.3026 12.6933 40.5562 11.9469 39.6357 11.9469H38.7162C38.4575 9.28307 37.8841 7.01539 36.7046 5.1069C34.5815 1.67047 30.7526 0 24.9998 0C19.2466 0 15.4181 1.67047 13.2949 5.10704C12.1155 7.01552 11.5423 9.28293 11.2835 11.947H10.3643C9.44365 11.947 8.69727 12.6933 8.69727 13.614V20.6753C8.69727 21.5958 9.44379 22.3422 10.3645 22.3422Z" fill="white"/>
<path d="M45.1531 43.1066C44.5988 39.6604 43.4577 35.2212 41.1693 33.6439C39.6088 32.5678 34.1611 29.6571 31.8348 28.4143L31.7859 28.3883C31.5197 28.246 31.1948 28.2746 30.9575 28.4608C29.7371 29.4187 28.4011 30.064 26.9867 30.3788C26.7368 30.4344 26.5315 30.6122 26.4406 30.8516L24.9993 34.6502L23.5581 30.8516C23.4672 30.6121 23.2619 30.4344 23.0119 30.3788C21.5975 30.064 20.2613 29.4187 19.0408 28.4608C18.8036 28.2744 18.4786 28.2459 18.2125 28.3883C15.9122 29.6172 10.3939 32.589 8.83591 33.6393C6.20047 35.4148 5.04952 41.8373 4.8456 43.1067C4.82536 43.2327 4.83704 43.3614 4.87956 43.4815C4.97384 43.7478 7.39124 50.0002 24.9992 50.0002C42.6069 50.0002 45.0245 43.7478 45.119 43.4817C45.1616 43.3613 45.1733 43.2324 45.1531 43.1066ZM36.9545 39.1492H29.9806V37.6804H36.9545V39.1492Z" fill="white"/>
</g>
<defs>
<clipPath id="clip0">
<rect width="50" height="50" fill="white"/>
</clipPath>
</defs>
</svg>
