<svg width="50" height="50" viewBox="0 0 50 50" fill="none" xmlns="http://www.w3.org/2000/svg">
<g clip-path="url(#clip0)">
<path fill-rule="evenodd" clip-rule="evenodd" d="M39.4769 0H31.5664C29.1441 0 27.1719 1.9722 27.1719 4.39453V7.03049H24.9258C24.1167 7.03049 23.4609 7.68661 23.4609 8.49533C23.4609 9.30443 24.1167 9.96017 24.9258 9.96017H27.2035C27.5762 14.246 31.1746 17.5777 35.5215 17.5777C40.1327 17.5777 43.8715 13.839 43.8715 9.22775C43.8715 7.61833 43.8715 6.00548 43.8715 4.39453C43.8715 1.9722 41.8993 0 39.4769 0Z" fill="white"/>
<path fill-rule="evenodd" clip-rule="evenodd" d="M32.1072 21.2433C31.0383 21.7259 30.0888 22.4251 29.3167 23.2838L21.4417 31.3473H10.4492C8.02917 31.3473 6.05469 33.3222 6.05469 35.7422C6.05469 38.1619 8.02956 40.1367 10.4492 40.1367H22.7543C24.1043 40.1367 25.4425 39.7976 26.4477 38.7852L27.7573 37.4668V48.5344C27.7573 49.2439 28.2612 49.865 28.9307 50L42.4076 49.9993C43.2156 49.9985 43.8705 49.3427 43.8705 48.5344V28.8571C43.8705 22.8417 37.6221 18.7542 32.1072 21.2433Z" fill="white"/>
<path fill-rule="evenodd" clip-rule="evenodd" d="M10.0801 28.4176H20.6273C21.4364 28.4176 22.0922 27.7619 22.0922 26.9528V16.5035C22.0922 15.6944 21.4364 15.0387 20.6273 15.0387H16.8187V17.5549C16.8187 18.364 16.1626 19.0197 15.3539 19.0197C14.5448 19.0197 13.8891 18.364 13.8891 17.5549V15.0387H10.0801C9.27136 15.0387 8.61523 15.6944 8.61523 16.5035V26.9528C8.61523 27.7619 9.27136 28.4176 10.0801 28.4176Z" fill="white"/>
</g>
<defs>
<clipPath id="clip0">
<rect width="50" height="50" fill="white"/>
</clipPath>
</defs>
</svg>
