<svg width="20" height="20" viewBox="0 0 20 20" fill="none" xmlns="http://www.w3.org/2000/svg">
<path d="M14.9995 0.00416134L12.406 0C9.49222 0 7.60923 1.9319 7.60923 4.92203V7.19141H5.00156C4.77622 7.19141 4.59375 7.37409 4.59375 7.59943V10.8875C4.59375 11.1128 4.77643 11.2953 5.00156 11.2953H7.60923V19.5922C7.60923 19.8175 7.7917 20 8.01704 20H11.4193C11.6446 20 11.8271 19.8173 11.8271 19.5922V11.2953H14.8761C15.1014 11.2953 15.2839 11.1128 15.2839 10.8875L15.2852 7.59943C15.2852 7.49123 15.2421 7.38762 15.1657 7.31105C15.0894 7.23448 14.9853 7.19141 14.8771 7.19141H11.8271V5.26763C11.8271 4.34298 12.0475 3.87358 13.2519 3.87358L14.9991 3.87295C15.2242 3.87295 15.4067 3.69027 15.4067 3.46514V0.411972C15.4067 0.187052 15.2244 0.00457747 14.9995 0.00416134Z" fill="#1A68B0"/>
</svg>
