<svg width="16" height="16" viewBox="0 0 16 16" fill="none" xmlns="http://www.w3.org/2000/svg">
<path d="M11.5844 0H4.4153C1.98071 0 0 1.9808 0 4.4154V11.5845C0 14.0192 1.98071 15.9999 4.4153 15.9999H11.5844C14.0192 15.9999 15.9999 14.0191 15.9999 11.5845V4.4154C16 1.9808 14.0192 0 11.5844 0ZM14.5804 11.5845C14.5804 13.2364 13.2364 14.5803 11.5845 14.5803H4.4153C2.76347 14.5804 1.41959 13.2364 1.41959 11.5845V4.4154C1.41959 2.76356 2.76347 1.41959 4.4153 1.41959H11.5844C13.2363 1.41959 14.5803 2.76356 14.5803 4.4154V11.5845H14.5804Z" fill="#B2BFDA"/>
<path d="M7.99972 3.87744C5.72639 3.87744 3.87695 5.72688 3.87695 8.00021C3.87695 10.2734 5.72639 12.1228 7.99972 12.1228C10.2731 12.1228 12.1225 10.2734 12.1225 8.00021C12.1225 5.72688 10.2731 3.87744 7.99972 3.87744ZM7.99972 10.7031C6.50925 10.7031 5.29654 9.49059 5.29654 8.00012C5.29654 6.50955 6.50916 5.29694 7.99972 5.29694C9.49029 5.29694 10.7029 6.50955 10.7029 8.00012C10.7029 9.49059 9.4902 10.7031 7.99972 10.7031Z" fill="#B2BFDA"/>
<path d="M12.2959 2.67383C12.0224 2.67383 11.7537 2.78456 11.5606 2.97857C11.3665 3.17163 11.2549 3.44041 11.2549 3.71486C11.2549 3.98846 11.3666 4.25714 11.5606 4.45115C11.7536 4.64422 12.0224 4.75589 12.2959 4.75589C12.5704 4.75589 12.8382 4.64422 13.0322 4.45115C13.2262 4.25714 13.3369 3.98837 13.3369 3.71486C13.3369 3.44041 13.2262 3.17163 13.0322 2.97857C12.8391 2.78456 12.5704 2.67383 12.2959 2.67383Z" fill="#B2BFDA"/>
</svg>
