<svg width="28" height="28" viewBox="0 0 28 28" fill="none" xmlns="http://www.w3.org/2000/svg">
<path d="M13.9994 0C6.26845 0 0 6.26845 0 13.9994C0 21.7304 6.26845 28 13.9994 28C21.7304 28 28 21.7304 28 13.9994C28 6.26845 21.7304 0 13.9994 0ZM16.9138 21.6972C16.1932 21.9816 15.6196 22.1973 15.1893 22.3467C14.7603 22.496 14.2613 22.5707 13.6936 22.5707C12.8213 22.5707 12.1422 22.3573 11.6587 21.9319C11.1751 21.5064 10.9345 20.9671 10.9345 20.3117C10.9345 20.0569 10.9523 19.7961 10.9879 19.5307C11.0246 19.2652 11.0827 18.9665 11.1621 18.6311L12.064 15.4453C12.1434 15.1396 12.2121 14.8492 12.2667 14.579C12.3212 14.3064 12.3473 14.0563 12.3473 13.8287C12.3473 13.4234 12.2631 13.139 12.096 12.979C11.9265 12.819 11.6077 12.7407 11.1324 12.7407C10.9001 12.7407 10.6607 12.7751 10.4154 12.8474C10.1724 12.9221 9.96148 12.9896 9.78844 13.056L10.0267 12.0747C10.6169 11.8341 11.1822 11.6279 11.7215 11.4572C12.2607 11.2841 12.7704 11.1988 13.2504 11.1988C14.1167 11.1988 14.7852 11.4098 15.2557 11.827C15.7239 12.2453 15.9597 12.7893 15.9597 13.4578C15.9597 13.5964 15.9431 13.8406 15.9111 14.189C15.8791 14.5387 15.8187 14.8575 15.731 15.1502L14.8338 18.3265C14.7603 18.5813 14.6951 18.8729 14.6359 19.1988C14.5778 19.5247 14.5493 19.7736 14.5493 19.9407C14.5493 20.3627 14.643 20.6507 14.8326 20.8036C15.0199 20.9564 15.3481 21.0335 15.8127 21.0335C16.032 21.0335 16.2773 20.9944 16.5547 20.9185C16.8296 20.8427 17.0287 20.7751 17.1544 20.717L16.9138 21.6972ZM16.755 8.80474C16.3366 9.19348 15.8329 9.38785 15.2439 9.38785C14.656 9.38785 14.1487 9.19348 13.7268 8.80474C13.3073 8.416 13.0951 7.94311 13.0951 7.39081C13.0951 6.8397 13.3084 6.36563 13.7268 5.97333C14.1487 5.57985 14.656 5.3843 15.2439 5.3843C15.8329 5.3843 16.3378 5.57985 16.755 5.97333C17.1733 6.36563 17.3831 6.8397 17.3831 7.39081C17.3831 7.9443 17.1733 8.416 16.755 8.80474Z" fill="white" fill-opacity="0.6"/>
</svg>
