<svg width="30" height="30" viewBox="0 0 30 30" fill="none" xmlns="http://www.w3.org/2000/svg">
<path d="M3.75 0.9375H0V18.75H3.75V0.9375Z" fill="white"/>
<path d="M30 0.9375H26.25V18.75H30V0.9375Z" fill="white"/>
<path d="M7.5 0.9375H5.625V18.75H7.5V0.9375Z" fill="white"/>
<path d="M23.4609 22.1351C24.6166 20.6911 25.3125 18.864 25.3125 16.875C25.3125 15.4887 24.9702 14.1828 24.3751 13.0276V0.9375H22.5001V10.6042C21.9374 10.099 21.3084 9.66891 20.6251 9.32801V0.9375H16.8751V8.4375H16.875C16.2299 8.4375 15.6041 8.51689 15.0001 8.65471V0.9375H9.37512V13.0271C8.77992 14.1824 8.4375 15.4884 8.4375 16.875C8.4375 21.5272 12.2228 25.3125 16.875 25.3125C18.864 25.3125 20.6912 24.6166 22.1353 23.4608L27.4622 28.7878C27.6453 28.9709 27.8852 29.0625 28.1251 29.0625C28.3649 29.0625 28.6048 28.9709 28.7879 28.7878C29.1541 28.4216 29.1541 27.8283 28.7879 27.4621L23.4609 22.1351ZM16.8751 23.4375C13.2564 23.4375 10.3126 20.4936 10.3126 16.875C10.3126 13.2564 13.2564 10.3125 16.8751 10.3125C20.4937 10.3125 23.4376 13.2564 23.4376 16.875C23.4376 20.4936 20.4937 23.4375 16.8751 23.4375Z" fill="white"/>
<path d="M12.1875 16.875C12.1875 17.5427 12.3316 18.1751 12.5832 18.75H15V12.5833C13.3459 13.3072 12.1875 14.9539 12.1875 16.875Z" fill="white"/>
<path d="M16.875 12.1875V18.75H20.625V14.0882C19.7705 12.9407 18.4156 12.1875 16.875 12.1875Z" fill="white"/>
</svg>
