<svg width="30" height="30" viewBox="0 0 30 30" fill="none" xmlns="http://www.w3.org/2000/svg">
<path d="M28.9192 25.3049L25.4788 17.9272C23.5792 20.6933 20.6131 22.6629 17.1797 23.2601L20.0597 29.436C20.4279 30.2262 21.5674 30.1735 21.864 29.3574L23.3401 25.3025L23.6443 25.1606L27.6993 26.6368C28.513 26.9354 29.287 26.0921 28.9192 25.3049Z" fill="white"/>
<path d="M15 0C9.07109 0 4.24707 4.82373 4.24707 10.7529C4.24707 16.6821 9.07115 21.5058 15 21.5058C20.9288 21.5058 25.7528 16.6821 25.7528 10.7529C25.7528 4.82373 20.9289 0 15 0ZM20.232 9.96281L18.3253 11.8215L18.7759 14.4468C18.9137 15.2483 18.0692 15.8504 17.3573 15.4771L15 14.238L12.6427 15.4771C11.9268 15.853 11.0871 15.2437 11.2241 14.4467L11.6747 11.8215L9.76801 9.96275C9.18852 9.39779 9.51014 8.4116 10.3097 8.29541L12.9451 7.91262L14.1237 5.52475C14.4804 4.79959 15.5194 4.79894 15.8765 5.52475L17.0551 7.91262L19.6905 8.29541C20.49 8.41154 20.8115 9.39779 20.232 9.96281Z" fill="white"/>
<path d="M4.521 17.9272L1.08061 25.305C0.711176 26.0958 1.49211 26.9345 2.30059 26.6366L6.35551 25.1605L6.65973 25.3023L8.13588 29.3573C8.43184 30.1717 9.5712 30.2278 9.94016 29.4359L12.8202 23.2601C9.38674 22.6629 6.42073 20.6933 4.521 17.9272Z" fill="white"/>
</svg>
