<svg width="30" height="30" viewBox="0 0 30 30" fill="none" xmlns="http://www.w3.org/2000/svg">
<g clip-path="url(#clip0)">
<path d="M15.7053 19.7827C16.045 19.7827 16.323 19.5047 16.323 19.165V18.8777C16.323 18.538 16.045 18.26 15.7053 18.26H5.38921C5.04946 18.26 4.77148 18.538 4.77148 18.8777V19.165C4.77148 19.5047 5.04946 19.7827 5.38921 19.7827H15.7053Z" fill="white"/>
<path d="M22.1815 7.04829C21.2116 6.07845 20.0843 5.31864 18.8241 4.78431L18.8179 4.78122C18.4071 4.60826 17.9315 4.75651 17.6906 5.13024L16.974 6.24524C16.7949 6.18346 16.6034 6.1464 16.4057 6.13096C16.347 6.12787 16.2853 6.12478 16.2235 6.12478C16.0567 6.12478 15.893 6.14331 15.7355 6.17729L16.9988 4.20673L17.391 3.59518C17.6659 3.16586 17.5423 2.59137 17.1099 2.31648L13.734 0.145166C13.5796 0.0463297 13.4066 0 13.2337 0C12.9279 0 12.6283 0.151344 12.4522 0.426233L6.58072 9.58097C6.30583 10.0103 6.42937 10.5848 6.86179 10.8597L7.50113 11.2705L7.2108 11.7245L6.92047 12.1785L6.73824 12.4627C6.46335 12.892 6.5869 13.4665 7.01931 13.7413L7.56909 14.0935C7.99841 14.3683 8.5729 14.2448 8.84778 13.8124L9.03001 13.5282L9.32032 13.0742L9.61065 12.6202L10.2407 13.0248C10.3952 13.1236 10.5681 13.1699 10.7411 13.1699C11.0468 13.1699 11.3465 13.0186 11.5225 12.7437L13.9317 8.98483C13.9811 9.20722 14.0614 9.41724 14.1726 9.61183C14.2683 9.7817 14.3826 9.93923 14.5154 10.0782C14.9602 10.5477 15.5934 10.838 16.2945 10.8164C17.5331 10.7793 18.5399 9.77244 18.5739 8.53389C18.5832 8.2312 18.5338 7.94087 18.438 7.67216C19.0836 8.02427 19.6828 8.47212 20.2171 9.00645C21.6873 10.4766 22.4965 12.4287 22.4965 14.5074C22.4965 16.586 21.6873 18.538 20.2171 20.0082C19.3028 20.9225 18.2033 21.5804 17.0018 21.9479C16.9123 21.9757 16.8196 21.9881 16.7269 21.9881H13.6877C13.175 21.9881 12.7611 21.5742 12.7611 21.0615V20.8545H8.3351V21.988V23.452V25.0242C8.43085 25.018 8.52968 25.0149 8.6254 25.0149H14.7131H15.8219H21.1128H21.8417H21.9128C22.9691 24.8265 23.7752 23.903 23.7752 22.791C23.7752 22.1054 23.4695 21.4907 22.9876 21.0768C23.5806 20.3294 24.0717 19.5078 24.4454 18.6245C24.9952 17.3211 25.2763 15.9374 25.2763 14.5135C25.2763 13.0896 24.9983 11.7059 24.4454 10.4025C23.9111 9.14547 23.1513 8.01503 22.1815 7.04829ZM16.2235 9.31844C15.8312 9.31844 15.5038 9.05281 15.4081 8.68835C15.3895 8.6204 15.3803 8.54628 15.3803 8.47215C15.3803 8.05518 15.683 7.70925 16.0814 7.6413C16.1278 7.63204 16.1772 7.62895 16.2266 7.62895C16.693 7.62895 17.0698 8.00576 17.0698 8.47215C17.0698 8.93853 16.6899 9.31844 16.2235 9.31844ZM21.8417 23.5108C21.7429 23.5571 21.6317 23.5818 21.5143 23.5818C21.2023 23.5818 20.9336 23.4027 20.807 23.1401C20.7545 23.0351 20.7267 22.9146 20.7267 22.7911C20.7267 22.3556 21.0788 22.0004 21.5174 22.0004C21.6348 22.0004 21.746 22.0251 21.8448 22.0714C21.8973 22.0961 21.9498 22.127 21.9961 22.161C22.1846 22.3062 22.3081 22.5316 22.3081 22.788C22.305 23.1123 22.1135 23.3872 21.8417 23.5108Z" fill="white"/>
<path d="M8.33524 26.1084C6.31526 26.2566 4.72461 27.943 4.72461 30.0001H20.9153C21.428 30.0001 21.8419 29.5862 21.8419 29.0735V27.5878V26.0991H8.62557C8.52674 26.0991 8.43099 26.1022 8.33524 26.1084Z" fill="white"/>
</g>
<defs>
<clipPath id="clip0">
<rect width="30" height="30" fill="white"/>
</clipPath>
</defs>
</svg>
