<svg width="30" height="30" viewBox="0 0 30 30" fill="none" xmlns="http://www.w3.org/2000/svg">
<path d="M27.6522 24.5529L20.0932 13.1386V6.41789H20.6484C21.301 6.41789 21.8302 5.88874 21.8302 5.23613V1.18176C21.8302 0.529144 21.301 0 20.6484 0H9.35079C8.69818 0 8.16903 0.529144 8.16903 1.18176V5.23613C8.16903 5.88874 8.69818 6.41789 9.35079 6.41789H9.90593V13.1386L2.34694 24.5529C1.63221 25.6322 1.56877 27.0111 2.1813 28.1513C2.79383 29.2916 3.97843 30 5.27288 30H24.7262C26.0207 30 27.2053 29.2916 27.8178 28.1514C28.4305 27.0111 28.3671 25.6322 27.6522 24.5529ZM10.5325 2.36351H19.4666V4.05437C18.6654 4.05437 11.5055 4.05437 10.5325 4.05437V2.36351ZM17.7297 6.41789V13.4943C17.7297 13.7264 17.7981 13.9533 17.9262 14.1468L19.128 15.9616H13.7074L8.17272 24.3191C7.81242 24.863 7.07945 25.0123 6.53499 24.6518C5.99082 24.2915 5.84182 23.5583 6.20212 23.0141L12.073 14.1467C12.2012 13.9532 12.2694 13.7263 12.2694 13.4943V6.41789H17.7297Z" fill="white"/>
</svg>
