<svg width="30" height="30" viewBox="0 0 30 30" fill="none" xmlns="http://www.w3.org/2000/svg">
<g clip-path="url(#clip0)">
<path d="M28.0047 15.3887C27.884 15.1417 27.884 14.8585 28.0047 14.6115L29.1236 12.3226C29.7465 11.0481 29.2529 9.5291 27.9999 8.86424L25.7493 7.6701C25.5065 7.54132 25.34 7.3121 25.2925 7.04146L24.8523 4.53196C24.6072 3.13474 23.3148 2.19584 21.9105 2.39453L19.3879 2.75136C19.1156 2.7898 18.8463 2.70226 18.6488 2.51119L16.8177 0.739793C15.7981 -0.246568 14.2009 -0.246627 13.1814 0.739793L11.3502 2.51136C11.1526 2.7025 10.8834 2.78986 10.6112 2.75154L8.08853 2.39471C6.68375 2.1959 5.39177 3.13492 5.14667 4.53213L4.70652 7.04151C4.659 7.31222 4.49254 7.54137 4.24978 7.67022L1.99921 8.86436C0.746132 9.52916 0.252541 11.0483 0.875507 12.3228L1.99435 14.6117C2.11505 14.8586 2.11505 15.1419 1.99435 15.3888L0.875448 17.6777C0.252483 18.9521 0.746074 20.4712 1.99915 21.136L4.24973 22.3302C4.49254 22.459 4.659 22.6882 4.70652 22.9588L5.14667 25.4683C5.3698 26.7403 6.46045 27.6323 7.71394 27.6322C7.8374 27.6322 7.96267 27.6235 8.08859 27.6057L10.6112 27.2489C10.8833 27.2102 11.1527 27.298 11.3502 27.489L13.1814 29.2604C13.6912 29.7537 14.3453 30.0002 14.9995 30.0002C15.6536 30.0001 16.308 29.7535 16.8177 29.2604L18.6488 27.489C18.8464 27.298 19.1157 27.2107 19.3879 27.2489L21.9105 27.6057C23.3154 27.8044 24.6072 26.8655 24.8523 25.4683L25.2925 22.9589C25.3401 22.6882 25.5065 22.459 25.7493 22.3302L27.9999 21.136C29.2529 20.4712 29.7465 18.9521 29.1236 17.6776L28.0047 15.3887ZM11.5389 7.2139C13.288 7.2139 14.7111 8.63695 14.7111 10.3861C14.7111 12.1352 13.288 13.5583 11.5389 13.5583C9.78979 13.5583 8.36673 12.1352 8.36673 10.3861C8.36673 8.63695 9.78979 7.2139 11.5389 7.2139ZM9.90159 21.3214C9.73266 21.4904 9.51124 21.5748 9.28987 21.5748C9.06851 21.5748 8.84702 21.4904 8.67816 21.3214C8.34031 20.9836 8.34031 20.4358 8.67816 20.0979L20.0974 8.67873C20.4352 8.34088 20.983 8.34088 21.3209 8.67873C21.6587 9.01658 21.6587 9.56437 21.3209 9.90222L9.90159 21.3214ZM18.46 22.7864C16.7108 22.7864 15.2878 21.3633 15.2878 19.6142C15.2878 17.8651 16.7108 16.442 18.46 16.442C20.2091 16.442 21.6322 17.8651 21.6322 19.6142C21.6322 21.3633 20.2091 22.7864 18.46 22.7864Z" fill="white"/>
<path d="M18.4605 18.1721C17.6654 18.1721 17.0186 18.8189 17.0186 19.614C17.0186 20.409 17.6654 21.0559 18.4605 21.0559C19.2555 21.0559 19.9023 20.409 19.9023 19.614C19.9023 18.8189 19.2555 18.1721 18.4605 18.1721Z" fill="white"/>
<path d="M11.5395 8.94409C10.7445 8.94409 10.0977 9.5909 10.0977 10.386C10.0977 11.181 10.7445 11.8279 11.5395 11.8279C12.3346 11.8279 12.9814 11.1811 12.9814 10.386C12.9814 9.59096 12.3346 8.94409 11.5395 8.94409Z" fill="white"/>
</g>
<defs>
<clipPath id="clip0">
<rect width="30" height="30" fill="white"/>
</clipPath>
</defs>
</svg>
