<svg width="36" height="54" viewBox="0 0 36 54" fill="none" xmlns="http://www.w3.org/2000/svg">
<path d="M18 0C8.075 0 0 8.07501 0 18C0 20.9795 0.744926 23.9337 2.16105 26.554L17.0157 53.4199C17.2135 53.7781 17.5903 54 18 54C18.4098 54 18.7866 53.7781 18.9844 53.4199L33.8445 26.5451C35.2551 23.9337 36.0001 20.9794 36.0001 17.9999C36.0001 8.075 27.9251 0 18 0ZM18 27C13.0375 27 9.00007 22.9626 9.00007 18C9.00007 13.0375 13.0375 9.00007 18 9.00007C22.9625 9.00007 27 13.0375 27 18C27 22.9626 22.9625 27 18 27Z" fill="#1A68B0"/>
</svg>
