<svg width="30" height="30" viewBox="0 0 30 30" fill="none" xmlns="http://www.w3.org/2000/svg">
<path d="M28.8281 13.8281H1.17188C0.524648 13.8281 0 14.3528 0 15C0 15.6472 0.524648 16.1719 1.17188 16.1719H28.8281C29.4754 16.1719 30 15.6472 30 15C30 14.3528 29.4754 13.8281 28.8281 13.8281Z" fill="#252525"/>
<path d="M28.8281 4.45312H1.17188C0.524648 4.45312 0 4.97777 0 5.625C0 6.27223 0.524648 6.79688 1.17188 6.79688H28.8281C29.4754 6.79688 30 6.27223 30 5.625C30 4.97777 29.4754 4.45312 28.8281 4.45312Z" fill="#252525"/>
<path d="M28.8281 23.2031H1.17188C0.524648 23.2031 0 23.7278 0 24.375C0 25.0222 0.524648 25.5469 1.17188 25.5469H28.8281C29.4754 25.5469 30 25.0222 30 24.375C30 23.7278 29.4754 23.2031 28.8281 23.2031Z" fill="#252525"/>
</svg>
