<svg width="15" height="15" viewBox="0 0 15 15" fill="none" xmlns="http://www.w3.org/2000/svg">
<path d="M13.8273 6.32809H8.67131V1.17206C8.67131 0.524959 8.14665 0 7.49925 0C6.85185 0 6.32719 0.524659 6.32719 1.17206V6.32809H1.17176C0.524659 6.32809 0 6.85275 0 7.50015C0 8.14755 0.524358 8.67191 1.17176 8.67191H6.32779V13.8279C6.32779 14.475 6.85245 15 7.49985 15C8.14725 15 8.67191 14.4753 8.67191 13.8279V8.67191H13.8279C14.4753 8.67191 15 8.14725 15 7.50015C15 6.85305 14.4747 6.32809 13.8273 6.32809Z" fill="#1A68B0"/>
</svg>
