<svg width="55" height="55" viewBox="0 0 55 55" fill="none" xmlns="http://www.w3.org/2000/svg">
<path d="M27.2634 0C19.5248 0 12.3733 3.3554 6.55082 8.29123C3.56901 10.8203 2.56015 14.9917 4.06483 18.6002L7.61821 27.1221C11.0149 19.659 18.5332 14.4701 27.2634 14.4701C36.2071 14.4701 43.8786 19.9103 47.1496 27.661L50.9354 18.5795C52.4332 14.9848 51.445 10.8375 48.4873 8.30328C42.5788 3.23661 35.2361 0 27.2634 0ZM31.545 9.69262H29.0521V12.3077H25.5711V9.69262H22.9525V6.20637H25.5711V3.58954H29.0521V6.20637H31.545V9.69262Z" fill="white"/>
<path d="M36.8387 19.6777C36.837 19.6795 36.8335 19.6829 36.8335 19.6846C36.8335 19.6846 30.6134 29.4392 19.9463 32.9754C19.5177 33.1166 19.0477 32.9582 18.7929 32.5811C18.5415 32.2075 18.5656 31.71 18.8583 31.3657C19.3283 30.8131 19.8052 30.195 20.2252 29.546C20.5334 29.0691 20.5162 28.451 20.1822 27.9913C19.8482 27.5317 19.2646 27.3268 18.7137 27.4749C15.4358 28.3563 10.1332 30.8251 8.37891 37.684C9.21216 47.3835 17.3467 54.9998 27.2614 54.9998C37.7339 54.9998 46.2214 46.5123 46.2214 36.0381C46.2231 29.0639 42.4511 22.9694 36.8387 19.6777Z" fill="white"/>
</svg>
