<svg width="55" height="55" viewBox="0 0 55 55" fill="none" xmlns="http://www.w3.org/2000/svg">
<path d="M48.2472 48.5867C48.2472 50.0429 47.0627 51.2274 45.6066 51.2274H9.39159C7.93544 51.2274 6.75091 50.0429 6.75091 48.5867V18.2573H2.97852V48.5867C2.97852 52.1223 5.8561 54.9999 9.39159 54.9999H45.6066C49.1436 54.9999 52.0196 52.1223 52.0196 48.5867V18.2573H48.2472V48.5867Z" fill="white"/>
<path d="M45.6066 5.95753H43.9497V4.14975C43.9497 1.8606 42.1435 0 39.9208 0C37.6966 0 35.8919 1.8606 35.8919 4.14975V5.95602H31.7574V4.14975C31.7574 1.8606 29.9511 0 27.7284 0C25.5057 0 23.6995 1.8606 23.6995 4.14975V5.95602H19.565V4.14975C19.565 1.8606 17.7588 0 15.5361 0C13.3134 0 11.5071 1.8606 11.5071 4.14975V5.95602H9.39159C5.8561 5.95602 2.97852 8.83368 2.97852 12.3693V15.3873H6.75091H9.01435V48.4343H38.943V47.4293C38.943 44.102 41.6501 41.3934 44.9788 41.3934H45.9838V15.3888H48.2472H52.0196V12.3708C52.0196 8.83519 49.1436 5.95753 45.6066 5.95753ZM34.2305 22.8387C33.4051 24.0866 32.6507 25.4583 31.9671 26.9568C31.282 28.4552 30.6875 29.9748 30.1835 31.5154C29.6825 33.0561 29.2781 34.5606 28.9779 36.0274C28.6746 37.4956 28.495 38.825 28.4346 40.0126H23.185C23.2649 38.7858 23.4913 37.4156 23.8625 35.9066C24.2352 34.3976 24.6985 32.8781 25.2507 31.3479C25.8045 29.8208 26.4383 28.3586 27.1535 26.9583C27.8688 25.5609 28.6067 24.3583 29.3717 23.3518H20.6197V19.0662H34.232L34.2305 22.8387ZM38.1568 4.14975C38.1568 3.11005 38.9491 2.2635 39.9223 2.2635C40.8971 2.2635 41.6878 3.11005 41.6878 4.14975V11.5378C41.6878 11.6465 41.6486 11.7415 41.632 11.8441H38.2157C38.1976 11.7415 38.1568 11.6465 38.1568 11.5378V4.14975ZM25.963 4.14975C25.963 3.11005 26.7552 2.2635 27.7284 2.2635C28.7017 2.2635 29.4939 3.11005 29.4939 4.14975V11.5378C29.4939 11.6465 29.4532 11.7415 29.4366 11.8441H26.0203C26.0037 11.7415 25.963 11.6465 25.963 11.5378V4.14975ZM13.7706 4.14975C13.7706 3.11005 14.5628 2.2635 15.5361 2.2635C16.5093 2.2635 17.3015 3.11005 17.3015 4.14975V11.5378C17.3015 11.6465 17.2608 11.7415 17.2442 11.8441H13.8279C13.8113 11.7415 13.7706 11.6465 13.7706 11.5378V4.14975Z" fill="white"/>
</svg>
