<svg width="55" height="55" viewBox="0 0 55 55" fill="none" xmlns="http://www.w3.org/2000/svg">
<path d="M15.5103 11.7539C18.6713 11.7539 21.2327 9.19243 21.2327 6.03156C21.2327 2.87069 18.6714 0.309326 15.5103 0.309326C12.3494 0.309326 9.78809 2.87069 9.78809 6.03156C9.78809 9.19243 12.3493 11.7539 15.5103 11.7539Z" fill="white"/>
<path d="M22.367 40.344C21.4138 40.2063 20.5494 39.7137 19.9389 38.9456C19.2125 38.0318 18.9471 36.8555 19.2104 35.7185L19.2447 35.5704C18.1525 35.7102 17.0929 35.4579 16.2138 34.9062C15.1755 34.2547 14.4532 33.2381 14.1797 32.0432C13.9062 30.8486 14.1144 29.6189 14.7658 28.5807L23.213 15.1178C22.3645 13.9023 21.0503 13.27 19.6979 13.27H11.3248C9.62855 13.27 8.14451 14.2658 7.41859 15.7364L0.300608 30.1562C-0.407017 31.5901 0.181538 33.3262 1.6153 34.0339C3.04939 34.7417 4.78537 34.1529 5.49311 32.7193L7.82312 27.9989L8.57467 37.8958V51.7954C8.57467 53.3945 9.87097 54.6906 11.47 54.6906C13.0691 54.6906 14.3654 53.3945 14.3654 51.7954V38.6903H16.6578V51.7954C16.6578 53.3945 17.9541 54.6906 19.5532 54.6906C20.9705 54.6906 22.149 53.6719 22.3989 52.327C22.3786 52.1524 22.3671 51.9753 22.3671 51.7954V40.344H22.367Z" fill="white"/>
<path d="M35.8422 43.6896C35.1238 43.5163 34.4799 43.1091 34.0084 42.5155C33.4428 41.804 33.1938 40.9122 33.3031 40.0231C33.2936 40.0231 33.2839 40.0232 33.2744 40.0232C32.8889 40.0232 32.5082 39.966 32.1426 39.8569V51.7955C32.1426 53.3946 33.4389 54.6908 35.038 54.6908C35.515 54.6908 35.9645 54.5747 36.3613 54.3704C36.0317 53.7916 35.8423 53.123 35.8423 52.4107V43.6896H35.8422Z" fill="white"/>
<path d="M29.911 33.9379L37.036 22.5823C37.4158 21.9772 37.9449 21.497 38.5594 21.1754C37.5502 20.0915 36.9311 18.6397 36.9311 17.0454C36.9311 16.5569 36.9908 16.0822 37.1003 15.6267L36.7452 15.0609C36.217 14.2192 35.327 13.743 34.4037 13.7067C34.1201 13.6678 27.8514 13.6703 27.5881 13.7068C26.665 13.743 25.7748 14.2192 25.2467 15.0609L16.1991 29.4807C15.3492 30.8353 15.7582 32.6222 17.1126 33.4721C18.4675 34.3222 20.2542 33.9124 21.1039 32.5584L22.016 31.1051L20.8589 36.1008C20.7135 36.7284 20.8625 37.388 21.2633 37.8923C21.6642 38.3967 22.2733 38.6906 22.9176 38.6906H24.0592V51.7956C24.0592 53.3947 25.3555 54.6909 26.9547 54.6909C28.5537 54.6909 29.8499 53.3947 29.8499 51.7956V38.6905H30.3089C29.1657 37.4043 28.9514 35.4672 29.911 33.9379Z" fill="white"/>
<path d="M54.6509 34.8378L47.5252 23.4822C47.1093 22.8194 46.4084 22.4443 45.6813 22.4158C45.5716 22.4007 44.327 22.3936 43.0636 22.3936C41.7518 22.3936 40.42 22.4012 40.3142 22.4159C39.5871 22.4444 38.8859 22.8196 38.4701 23.4824L31.345 34.838C30.6758 35.9046 30.998 37.312 32.0646 37.9811C33.1318 38.6509 34.539 38.3276 35.2077 37.2616L35.9259 36.1171L35.0147 40.0512C34.9004 40.5455 35.0177 41.0649 35.3334 41.4621C35.6489 41.8593 36.1287 42.0907 36.6361 42.0907H37.5351V52.411C37.5351 53.6703 38.5559 54.6911 39.8152 54.6911C41.0743 54.6911 42.095 53.6703 42.095 52.411V42.0907H43.9004V52.411C43.9004 53.6703 44.9215 54.6911 46.1805 54.6911C47.4398 54.6911 48.4604 53.6703 48.4604 52.411V42.0907H49.3592C49.8665 42.0907 50.3462 41.8593 50.6618 41.4621C50.9775 41.0649 51.0948 40.5456 50.9803 40.0512L50.0694 36.1164L50.7881 37.2618C51.4576 38.3289 52.8654 38.6503 53.9311 37.9811C54.998 37.3117 55.3202 35.9044 54.6509 34.8378Z" fill="white"/>
<path d="M30.9964 12.4412C34.0572 12.4412 36.5504 9.96012 36.5504 6.8871C36.5504 3.81923 34.0645 1.33301 30.9964 1.33301C27.9283 1.33301 25.4424 3.81912 25.4424 6.8871C25.4424 9.96067 27.9362 12.4412 30.9964 12.4412Z" fill="white"/>
<path d="M40.6151 20.7126C41.3007 21.1588 42.1187 21.4191 42.9979 21.4191C43.8774 21.4191 44.6954 21.1587 45.381 20.7122C46.5789 19.9321 47.3716 18.5818 47.3716 17.0452C47.3716 14.6292 45.4138 12.6714 42.9979 12.6714C40.5818 12.6714 38.624 14.6293 38.624 17.0452C38.624 18.582 39.4168 19.9325 40.6151 20.7126Z" fill="white"/>
</svg>
