<svg width="55" height="55" viewBox="0 0 55 55" fill="none" xmlns="http://www.w3.org/2000/svg">
<g clip-path="url(#clip0)">
<path d="M9.75497 38.3644H3.29082C3.29082 38.3644 0 38.3594 0 43.3737C0.156561 46.6122 2.6831 47.1297 3.13375 47.1297C3.5844 47.1297 16.296 47.1297 16.296 47.1297C16.296 47.1297 19.5929 47.1339 19.7384 43.1777C19.7439 43.0267 19.7561 43.1735 19.7579 43.0217C19.7645 42.4376 19.7579 39.4185 19.7579 39.4185C19.7657 38.989 20.0938 38.5014 20.5361 38.5014H30.8423C30.9939 38.5014 31.1251 38.6239 31.139 38.7743L33.5734 44.2804C34.4815 46.5322 36.2473 48.1846 39.1974 47.123C41.9901 46.1178 42.1345 43.905 41.6415 42.3508L35.588 24.0009C34.6781 21.8274 32.3832 20.5596 29.5111 20.5596H23.3478H15.3169C7.63367 20.5596 1.18842 29.5107 9.91509 38.1154C9.97687 38.2533 9.90595 38.3644 9.75497 38.3644Z" fill="white"/>
<path d="M45.4646 26.6191C50.7311 26.6191 55.0004 22.3497 55.0004 17.0832C55.0004 11.8167 50.7311 7.54736 45.4646 7.54736C40.1981 7.54736 35.9287 11.8167 35.9287 17.0832C35.9287 22.3497 40.1981 26.6191 45.4646 26.6191Z" fill="white"/>
</g>
<defs>
<clipPath id="clip0">
<rect width="55" height="55" fill="white"/>
</clipPath>
</defs>
</svg>
