<svg width="55" height="55" viewBox="0 0 55 55" fill="none" xmlns="http://www.w3.org/2000/svg">
<path d="M52.2304 25.7848L27.8873 1.43928C26.9282 0.480171 25.6716 0 24.415 0C23.1585 0 21.9006 0.480171 20.9428 1.43928L7.61151 14.768C5.6933 16.6863 5.6933 19.8561 7.61151 21.7744L9.82104 24.0444H14.9178L10.1605 19.2254C9.82722 18.8909 9.77784 18.4724 9.77784 18.27C9.77784 18.0675 9.82722 17.6639 10.1605 17.3306L11.9207 15.6247L20.2861 24.0444H28.3107L15.9324 11.6043L23.4905 4.01665C23.8238 3.68337 24.2126 3.62042 24.415 3.62042C24.6175 3.62042 25.0063 3.66239 25.3396 3.99443L49.6839 28.3363C50.0184 28.6708 50.069 29.0559 50.069 29.2596C50.069 29.462 49.9826 29.8496 49.6481 30.1841L48.2681 31.5308V36.6276L52.1983 32.7331C54.1153 30.8112 54.1499 27.7031 52.2304 25.7848Z" fill="white"/>
<path d="M40.8084 26.3267H6.37799C3.66607 26.3267 1.34668 28.5115 1.34668 31.2234V44.2461H45.6582V31.2234C45.6582 28.5115 43.5203 26.3267 40.8084 26.3267ZM13.3794 39.8122C12.4178 39.8122 11.5475 39.4295 10.9057 38.8124C10.2638 39.4295 9.39233 39.8122 8.43322 39.8122C6.46069 39.8122 4.85971 38.2137 4.85971 36.2374C4.85971 34.2637 6.45946 32.6639 8.43322 32.6639C9.39356 32.6639 10.265 33.0454 10.9057 33.6625C11.5475 33.0454 12.4178 32.6639 13.3794 32.6639C15.3531 32.6639 16.9529 34.2637 16.9529 36.2374C16.9529 38.2137 15.3531 39.8122 13.3794 39.8122Z" fill="white"/>
<path d="M1.34668 50.0735C1.34668 52.7854 3.66483 54.9987 6.37799 54.9987H40.8084C43.5203 54.9987 45.6595 52.7854 45.6595 50.0735V49.7847H1.34668V50.0735Z" fill="white"/>
</svg>
