<svg width="55" height="55" viewBox="0 0 55 55" fill="none" xmlns="http://www.w3.org/2000/svg">
<path d="M53.0311 30.8975L52.9014 30.7772C52.8222 30.7043 52.7429 30.6311 52.6665 30.5548L40.3115 18.2032C40.2845 18.1762 40.2564 18.1504 40.227 18.1258C39.6132 17.6102 38.8967 17.2385 38.1331 17.0288V14.0029C38.1331 13.2706 37.5396 12.6773 36.8076 12.6773H30.7985C30.0665 12.6773 29.4729 13.2706 29.4729 14.0029V16.8305H3.91668C1.75686 16.8305 0 18.5876 0 20.7472V44.213C0 44.9453 0.593573 45.5386 1.32553 45.5386H4.78782C5.39173 48.1721 7.7525 50.1432 10.5669 50.1432C13.3812 50.1432 15.742 48.1721 16.3459 45.5386H39.0645C39.6684 48.1721 42.0291 50.1432 44.8432 50.1432C47.6603 50.1432 50.0232 48.1682 50.6242 45.5306C53.0507 45.4463 55 43.4514 55 41.0047V35.4465C55 33.7302 54.2824 32.0722 53.0311 30.8975ZM32.1242 15.3284H35.4823V16.8305H32.1242V15.3284ZM10.5666 47.4921C8.75858 47.4921 7.28751 46.0211 7.28751 44.213C7.28751 42.405 8.75858 40.9339 10.5666 40.9339C12.3746 40.9339 13.8457 42.405 13.8457 44.213C13.8457 46.0211 12.3749 47.4921 10.5666 47.4921ZM17.3857 28.4811C17.3857 29.2133 16.7921 29.8066 16.0601 29.8066H13.9091V31.9577C13.9091 32.6899 13.3155 33.2832 12.5835 33.2832H10.021C9.28906 33.2832 8.69548 32.6899 8.69548 31.9577V29.8066H6.54441C5.81245 29.8066 5.21888 29.2133 5.21888 28.4811V25.9186C5.21888 25.1864 5.81245 24.5931 6.54441 24.5931H8.69548V22.442C8.69548 21.7098 9.28906 21.1164 10.021 21.1164H12.5838C13.3158 21.1164 13.9093 21.7098 13.9093 22.442V24.5931H16.0604C16.7924 24.5931 17.3859 25.1864 17.3859 25.9186V28.4811H17.3857ZM33.5386 29.7706C32.8946 29.7706 32.3711 29.2467 32.3711 28.6031V22.3468C32.3711 21.9881 32.6627 21.6968 33.0214 21.6968H37.1955C37.6077 21.6968 37.9953 21.8572 38.2869 22.1488L44.6643 28.5264C44.975 28.8371 44.8782 29.1852 44.8223 29.3207C44.7664 29.4559 44.5885 29.7706 44.1487 29.7706H33.5386ZM44.8432 47.4921C43.0352 47.4921 41.5642 46.0211 41.5642 44.213C41.5642 42.405 43.035 40.9339 44.8432 40.9339C46.6515 40.9339 48.1223 42.405 48.1223 44.213C48.1223 46.0211 46.6513 47.4921 44.8432 47.4921ZM33.8032 11.2192C33.0712 11.2192 32.4776 10.6259 32.4776 9.89371V6.18222C32.4776 5.45 33.0712 4.85669 33.8032 4.85669C34.5351 4.85669 35.1287 5.45 35.1287 6.18222V9.89371C35.1287 10.6259 34.5354 11.2192 33.8032 11.2192ZM40.2386 12.3459C39.8993 12.3459 39.5602 12.2166 39.3012 11.9576C38.7835 11.4401 38.7835 10.6007 39.3012 10.0833L41.6397 7.74476C42.1572 7.227 42.9965 7.227 43.5143 7.74476C44.032 8.26224 44.032 9.10157 43.5143 9.61906L41.1758 11.9576C40.9173 12.2166 40.578 12.3459 40.2386 12.3459ZM27.9912 12.3459C27.6519 12.3459 27.3128 12.2166 27.0538 11.9576L24.7153 9.61906C24.1976 9.10157 24.1976 8.26224 24.7153 7.74476C25.2331 7.227 26.0721 7.227 26.5899 7.74476L28.9284 10.0833C29.4461 10.6007 29.4461 11.4401 28.9284 11.9576C28.6699 12.2166 28.3306 12.3459 27.9912 12.3459Z" fill="white"/>
</svg>
