<svg width="30" height="30" viewBox="0 0 30 30" fill="none" xmlns="http://www.w3.org/2000/svg">
<path d="M9.18842 9.41115C9.2926 9.89039 9.45235 10.2006 9.63872 10.3939C10.0821 13.4801 12.8522 16.1101 15.0771 16.0001C17.9074 15.8612 19.9135 12.811 20.3638 10.3939C20.5501 10.2018 20.7295 9.79084 20.8372 9.30812C20.9576 8.75364 21.0872 7.91786 20.7539 7.47566C20.7342 7.45251 20.6068 7.3356 20.5849 7.31592C20.9032 6.16759 21.6024 4.11866 19.8614 2.27695C18.9179 1.27911 17.6075 0.777872 16.4233 0.381977C12.9274 -0.786027 10.4594 0.851957 9.32038 3.57576C9.23819 3.76907 8.70686 4.99264 9.35048 7.31592C9.28797 7.35759 9.23125 7.41084 9.18379 7.47566C8.84925 7.9167 9.06687 8.85666 9.18842 9.41115Z" fill="#1A68B0"/>
<path d="M27.2692 26.3837C27.172 24.2595 27.0516 20.8932 25.196 18.1393C25.196 18.1393 24.667 17.4182 23.4122 16.9389C23.4122 16.9389 20.6872 16.1089 19.4324 15.2118L18.8594 15.6042L18.9231 19.3293L15.4827 28.5136C15.4075 28.715 15.2153 28.8482 15.0011 28.8482C14.787 28.8482 14.5948 28.715 14.5196 28.5136L11.0804 19.3293C11.0804 19.3293 11.1441 15.6158 11.1429 15.6042C11.151 15.6355 10.5688 15.2118 10.5688 15.2118C9.31624 16.1089 6.59013 16.9389 6.59013 16.9389C5.33531 17.4182 4.80629 18.1393 4.80629 18.1393C2.95184 20.8932 2.82913 24.2595 2.7319 26.3837C2.66476 27.8515 2.97267 28.399 3.35931 28.5553C8.15866 30.4815 21.8402 30.4815 26.6407 28.5553C27.0296 28.4002 27.3352 27.8515 27.2692 26.3837Z" fill="#1A68B0"/>
<path d="M15.1241 17.1867L14.969 17.1902C14.4689 17.1902 13.9642 17.093 13.4688 16.9216L14.8324 19.0088L13.6088 20.1895L14.8683 27.8377C14.8787 27.9037 14.9354 27.9511 15.0026 27.9511C15.0685 27.9511 15.1253 27.9037 15.1368 27.8377L16.3963 20.1895L15.1716 19.0088L16.5155 16.9529C16.0768 17.0814 15.6126 17.167 15.1241 17.1867Z" fill="#1A68B0"/>
</svg>
