<svg width="30" height="30" viewBox="0 0 30 30" fill="none" xmlns="http://www.w3.org/2000/svg">
<g clip-path="url(#clip0)">
<path d="M16.7217 5.34131H6.4949C5.74171 5.34131 5.13086 5.95216 5.13086 6.70471C5.13086 7.45727 5.74171 8.06812 6.4949 8.06812H16.7217C17.4762 8.06812 18.0858 7.45727 18.0858 6.70471C18.0851 5.95216 17.4755 5.34131 16.7217 5.34131Z" fill="#1A68B0"/>
<path d="M18.0851 11.8181C18.0851 11.0649 17.4755 10.4547 16.7211 10.4547H6.4949C5.74171 10.4547 5.13086 11.0656 5.13086 11.8181C5.13086 12.5713 5.74171 13.1822 6.4949 13.1822H16.7217C17.4755 13.1822 18.0851 12.5713 18.0851 11.8181Z" fill="#1A68B0"/>
<path d="M11.6089 18.2956C12.3621 18.2956 12.9723 17.6847 12.9723 16.9322C12.9723 16.179 12.3621 15.5681 11.6089 15.5681H6.4949C5.74171 15.5681 5.13086 16.179 5.13086 16.9322C5.13086 17.6853 5.74171 18.2956 6.4949 18.2956H11.6089Z" fill="#1A68B0"/>
<path d="M21.9023 22.934L20.4718 23.8781V27.2726H2.74502V2.72745H20.4718V8.11596L23.1993 3.39192V1.3634C23.1993 0.610213 22.5884 0 21.8352 0H1.38098C0.627791 0 0.0175781 0.610851 0.0175781 1.3634V28.6372C0.0175781 29.3904 0.627791 30.0006 1.38098 30.0006H21.8352C22.5891 30.0006 23.1999 29.3898 23.1999 28.6372V21.1213L22.5482 22.2485C22.3893 22.5236 22.1659 22.7604 21.9023 22.934Z" fill="#1A68B0"/>
<path d="M29.9666 6.31528C29.9385 6.19273 29.6506 5.09103 27.9157 4.0889C26.1808 3.08741 25.0829 3.38869 24.9617 3.42635C24.7989 3.47805 24.6617 3.58784 24.5761 3.73592L16.0536 18.4972C16.0006 18.5898 15.9693 18.6925 15.9629 18.7985L15.6438 24.1251C15.6285 24.3829 15.76 24.6268 15.9827 24.7563C16.2074 24.8853 16.4838 24.8763 16.6995 24.7353L21.1529 21.7953C21.2417 21.7378 21.3151 21.6593 21.368 21.568L29.8912 6.80422C29.9768 6.65613 30.0029 6.48252 29.9666 6.31528ZM18.4178 22.3755C18.1912 22.1923 17.934 22.0193 17.6576 21.8591C17.38 21.6989 17.1017 21.5642 16.8297 21.4583L16.9248 19.8612C17.2804 19.9078 17.8076 20.0521 18.4772 20.4376C19.1461 20.8238 19.5336 21.2093 19.7531 21.4934L18.4178 22.3755Z" fill="#1A68B0"/>
<path d="M9.52509 24.5962C9.56978 24.87 9.88573 24.9549 10.097 25.043C10.3013 25.1292 10.5451 24.9658 10.7149 24.8834C11.7553 24.3773 13.1647 24.9722 14.2791 24.9722C14.9385 24.9722 14.9385 23.9496 14.2791 23.9496C12.9796 23.9496 11.8983 23.6209 10.6102 23.8334C10.6102 23.7588 10.5828 23.6579 10.5023 23.5207C10.2617 23.109 9.95531 22.9922 9.64829 23.042C9.62786 22.9934 9.60807 22.9449 9.57935 22.8958C9.49892 22.7643 9.38658 22.6986 9.2602 22.6711C9.61956 22.043 9.85126 21.3786 9.61573 20.8411C9.54361 20.6777 9.33871 20.5941 9.17403 20.5877C8.49105 20.5622 7.90509 21.279 7.46595 21.7092C6.36743 22.786 5.39977 24.0083 4.46339 25.2249C4.06126 25.7477 4.95041 26.2558 5.34616 25.742C6.17595 24.6645 7.05488 23.6183 8.00084 22.6398C7.77297 23.0139 7.53105 23.3809 7.27637 23.7345C6.91254 24.2968 7.78126 24.7756 8.15914 24.2509C8.24914 24.1137 8.36339 24.0147 8.4885 23.9298C8.4636 23.993 8.43807 24.0549 8.41254 24.1188C8.41382 24.1188 8.41509 24.1194 8.41637 24.12C8.39658 24.1609 8.3768 24.2017 8.36084 24.2407C8.13233 24.8132 8.98573 25.0756 9.29595 24.6339C9.37446 24.5228 9.44722 24.4041 9.51297 24.2796C9.5085 24.3651 9.50658 24.48 9.52509 24.5962Z" fill="#1A68B0"/>
</g>
<defs>
<clipPath id="clip0">
<rect width="30" height="30" fill="white"/>
</clipPath>
</defs>
</svg>
