<svg width="30" height="30" viewBox="0 0 30 30" fill="none" xmlns="http://www.w3.org/2000/svg">
<path d="M27.8685 13.7841H24.8792H24.4793C23.5956 13.7841 22.8789 14.5008 22.8789 15.3875V15.5613C22.8789 16.4488 23.5956 17.166 24.4806 17.166H27.4729H27.8685C28.7539 17.166 29.4727 16.4458 29.4727 15.5613L29.471 15.3853C29.4727 14.5008 28.7539 13.7841 27.8685 13.7841Z" fill="#1A68B0"/>
<path d="M27.87 9.78393H27.164V2.02683C27.164 0.911945 26.2521 0 25.1368 0H11.762C10.6471 0 9.73518 0.912373 9.73518 2.02683V7.59227C7.03745 9.11731 4.25495 10.7104 4.24895 10.7143C2.73846 11.3359 0.525391 13.3418 0.525391 18.0784C0.525391 18.5014 0.55322 18.8918 0.592181 19.269C0.604597 19.3795 0.618298 19.4857 0.633283 19.5923C0.672244 19.8693 0.721052 20.1343 0.77928 20.386C0.800259 20.476 0.816528 20.5697 0.83922 20.6558C0.91757 20.9469 1.00834 21.2201 1.11023 21.4799C1.16161 21.6088 1.21727 21.7261 1.27336 21.8469C1.3333 21.974 1.39367 22.099 1.45831 22.2159C1.53324 22.3568 1.60817 22.4925 1.69037 22.6214C1.71006 22.6513 1.73147 22.6788 1.75159 22.7091C3.70221 25.6578 7.30076 25.671 7.30076 25.671H9.73518V27.974C9.73518 29.0876 10.6471 29.9996 11.762 29.9996H25.1364C26.2517 29.9996 27.1636 29.0872 27.1636 27.974V25.165H27.4727V25.1633H27.8671C28.7537 25.1633 29.4726 24.4461 29.4709 23.5594L29.4726 23.3848C29.4709 22.4994 28.7537 21.7844 27.8683 21.7844H27.4727H24.8786H24.4787C23.5933 21.7844 22.8783 22.5011 22.8783 23.386V23.5637C22.8783 24.4466 23.595 25.1663 24.48 25.1663H25.7533V26.2512H11.1451V11.6982C11.8789 11.2328 12.5584 10.7849 12.9458 10.4848C14.9089 8.96661 16.7721 7.75753 17.0243 6.66105C17.3527 5.23833 16.2605 4.03953 14.366 5.02383C13.7691 5.33381 12.5442 6.01327 11.1451 6.79892V3.21193L25.7533 3.21407V9.78307H24.8786V9.78479H24.4809C23.595 9.78479 22.8762 10.5015 22.8762 11.389V11.5629C22.8762 12.45 23.595 13.165 24.4787 13.165H24.8765H27.4706H27.8692C28.7537 13.165 29.4709 12.4483 29.4709 11.5629V11.3843C29.4726 10.5028 28.7559 9.78393 27.87 9.78393ZM18.4475 26.9628C19.0092 26.9628 19.4622 27.4162 19.4622 27.9766C19.4622 28.5383 19.0088 28.99 18.4475 28.99C17.8879 28.99 17.4358 28.537 17.4358 27.9766C17.4366 27.4179 17.89 26.9628 18.4475 26.9628ZM20.5895 1.95148H16.3097C16.1753 1.95148 16.064 1.8423 16.064 1.70744C16.064 1.57043 16.1753 1.46125 16.3097 1.46125H20.5895C20.7239 1.46125 20.8335 1.57 20.8335 1.70744C20.8335 1.84187 20.7239 1.95148 20.5895 1.95148Z" fill="#1A68B0"/>
<path d="M27.8687 17.7842H27.4731H24.4795C23.5958 17.7842 22.877 18.503 22.877 19.388V19.5635C22.877 20.4494 23.5941 21.1661 24.4795 21.1661H24.8772H27.4714H27.8678C28.7545 21.1661 29.4695 20.4494 29.4716 19.5635V19.388C29.4712 18.503 28.7562 17.7842 27.8687 17.7842Z" fill="#1A68B0"/>
</svg>
